AdventPro-reg_wd.ufo
<glyph name="exclam" format="1">
  <advance width="148" height="962"/>
  <unicode hex="0021"/>
  <outline>
    <contour>
      <point x="40" y="673" type="line"/>
      <point x="40" y="699"/>
      <point x="52" y="710"/>
      <point x="73" y="710" type="curve" smooth="yes"/>
      <point x="96" y="710"/>
      <point x="107" y="698"/>
      <point x="107" y="674" type="curve"/>
      <point x="98" y="121" type="line"/>
      <point x="50" y="121" type="line"/>
    </contour>
    <contour>
      <point x="73" y="67" type="curve" smooth="yes"/>
      <point x="92" y="67"/>
      <point x="107" y="53"/>
      <point x="107" y="34" type="curve" smooth="yes"/>
      <point x="107" y="16"/>
      <point x="92" y="0"/>
      <point x="73" y="0" type="curve" smooth="yes"/>
      <point x="55" y="0"/>
      <point x="40" y="16"/>
      <point x="40" y="34" type="curve" smooth="yes"/>
      <point x="40" y="53"/>
      <point x="55" y="67"/>
    </contour>
  </outline>
</glyph>
<glyph name="numbersign" format="1">
  <advance width="887" height="962"/>
  <unicode hex="0023"/>
  <outline>
    <contour>
      <point x="569" y="244" type="line"/>
      <point x="853" y="244" type="line"/>
      <point x="853" y="190" type="line"/>
      <point x="550" y="190" type="line"/>
      <point x="484" y="0" type="line"/>
      <point x="424" y="0" type="line"/>
      <point x="490" y="190" type="line"/>
      <point x="290" y="190" type="line"/>
      <point x="224" y="0" type="line"/>
      <point x="164" y="0" type="line"/>
      <point x="231" y="190" type="line"/>
      <point x="29" y="190" type="line"/>
      <point x="29" y="244" type="line"/>
      <point x="250" y="244" type="line"/>
      <point x="309" y="414" type="line"/>
      <point x="29" y="414" type="line"/>
      <point x="29" y="471" type="line"/>
      <point x="330" y="471" type="line"/>
      <point x="409" y="700" type="line"/>
      <point x="469" y="700" type="line"/>
      <point x="389" y="471" type="line"/>
      <point x="589" y="471" type="line"/>
      <point x="670" y="700" type="line"/>
      <point x="730" y="700" type="line"/>
      <point x="647" y="471" type="line"/>
      <point x="853" y="471" type="line"/>
      <point x="853" y="414" type="line"/>
      <point x="629" y="414" type="line"/>
    </contour>
    <contour>
      <point x="511" y="244" type="line"/>
      <point x="570" y="414" type="line"/>
      <point x="368" y="414" type="line"/>
      <point x="310" y="244" type="line"/>
    </contour>
  </outline>
</glyph>
<glyph name="dollar" format="1">
  <advance width="766" height="962"/>
  <unicode hex="0024"/>
  <outline>
    <component base="S" xOffset="2.2176"/>
    <contour>
      <point x="370" y="-114" type="line"/>
      <point x="370" y="818" type="line"/>
      <point x="428" y="818" type="line"/>
      <point x="428" y="-114" type="line"/>
    </contour>
  </outline>
</glyph>
<glyph name="ampersand" format="2">
  <advance width="762"/>
  <unicode hex="0026"/>
  <outline>
    <contour>
      <point x="574" y="653" type="line"/>
      <point x="316" y="653" type="line" smooth="yes"/>
      <point x="231" y="653"/>
      <point x="181" y="614"/>
      <point x="181" y="550" type="curve" smooth="yes"/>
      <point x="181" y="461"/>
      <point x="297" y="403"/>
      <point x="417" y="403" type="curve" smooth="yes"/>
      <point x="525" y="403" type="line"/>
      <point x="525" y="507" type="line"/>
      <point x="582" y="507" type="line"/>
      <point x="582" y="404" type="line"/>
      <point x="732" y="404" type="line"/>
      <point x="714" y="350" type="line"/>
      <point x="582" y="350" type="line"/>
      <point x="582" y="137" type="line" smooth="yes"/>
      <point x="582" y="84"/>
      <point x="618" y="50"/>
      <point x="685" y="34" type="curve"/>
      <point x="666" y="-9" type="line"/>
      <point x="597" y="5"/>
      <point x="554" y="42"/>
      <point x="535" y="81" type="curve"/>
      <point x="477" y="11"/>
      <point x="361" y="-6"/>
      <point x="295" y="-6" type="curve" smooth="yes"/>
      <point x="130" y="-6"/>
      <point x="28" y="26"/>
      <point x="28" y="160" type="curve" smooth="yes"/>
      <point x="28" y="255" type="line" smooth="yes"/>
      <point x="28" y="378"/>
      <point x="106" y="403"/>
      <point x="216" y="403" type="curve" smooth="yes"/>
      <point x="244" y="403" type="line"/>
      <point x="154" y="443"/>
      <point x="127" y="497"/>
      <point x="125" y="551" type="curve" smooth="yes"/>
      <point x="122" y="642"/>
      <point x="188" y="704"/>
      <point x="321" y="704" type="curve" smooth="yes"/>
      <point x="589" y="704" type="line"/>
    </contour>
    <contour>
      <point x="525" y="350" type="line"/>
      <point x="245" y="350" type="line" smooth="yes"/>
      <point x="191" y="350"/>
      <point x="86" y="364"/>
      <point x="86" y="252" type="curve" smooth="yes"/>
      <point x="86" y="165" type="line" smooth="yes"/>
      <point x="86" y="67"/>
      <point x="183" y="42"/>
      <point x="312" y="50" type="curve" smooth="yes"/>
      <point x="433" y="58"/>
      <point x="525" y="107"/>
      <point x="525" y="177" type="curve" smooth="yes"/>
    </contour>
  </outline>
</glyph>
<glyph name="parenleft" format="1">
  <advance width="273" height="962"/>
  <unicode hex="0028"/>
  <outline>
    <contour>
      <point x="248" y="780" type="line"/>
      <point x="179" y="748"/>
      <point x="147" y="698"/>
      <point x="147" y="637" type="curve" smooth="yes"/>
      <point x="147" y="444"/>
      <point x="147" y="255"/>
      <point x="147" y="62" type="curve" smooth="yes"/>
      <point x="147" y="-1"/>
      <point x="179" y="-49"/>
      <point x="248" y="-81" type="curve"/>
      <point x="221" y="-120" type="line"/>
      <point x="144" y="-82"/>
      <point x="62" y="-58"/>
      <point x="62" y="70" type="curve" smooth="yes"/>
      <point x="62" y="627" type="line" smooth="yes"/>
      <point x="62" y="728"/>
      <point x="114" y="779"/>
      <point x="221" y="818" type="curve"/>
    </contour>
  </outline>
</glyph>
<glyph name="asterisk" format="2">
  <advance width="353" height="962"/>
  <unicode hex="002A"/>
  <outline>
    <contour>
      <point x="41" y="627" type="line"/>
      <point x="146" y="587" type="line"/>
      <point x="146" y="700" type="line"/>
      <point x="200" y="700" type="line"/>
      <point x="200" y="587" type="line"/>
      <point x="307" y="627" type="line"/>
      <point x="328" y="579" type="line"/>
      <point x="219" y="541" type="line"/>
      <point x="285" y="451" type="line"/>
      <point x="244" y="419" type="line"/>
      <point x="175" y="516" type="line"/>
      <point x="110" y="419" type="line"/>
      <point x="64" y="451" type="line"/>
      <point x="130" y="541" type="line"/>
      <point x="23" y="579" type="line"/>
    </contour>
  </outline>
</glyph>
<glyph name="comma" format="2">
  <advance width="267" height="962"/>
  <unicode hex="002C"/>
  <outline>
    <contour>
      <point x="99" y="-85" type="line"/>
      <point x="120" y="-59"/>
      <point x="127" y="-32"/>
      <point x="130" y="-10" type="curve"/>
      <point x="114" y="-8"/>
      <point x="102" y="7"/>
      <point x="102" y="23" type="curve" smooth="yes"/>
      <point x="102" y="42"/>
      <point x="116" y="56"/>
      <point x="135" y="56" type="curve" smooth="yes"/>
      <point x="153" y="56"/>
      <point x="167" y="43"/>
      <point x="169" y="23" type="curve"/>
      <point x="169" y="-40"/>
      <point x="135" y="-80"/>
      <point x="116" y="-98" type="curve"/>
    </contour>
  </outline>
</glyph>
<glyph name="one" format="1">
  <advance width="300" height="962"/>
  <unicode hex="0031"/>
  <outline>
    <contour>
      <point x="8" y="622" type="line"/>
      <point x="5" y="622"/>
      <point x="134" y="644"/>
      <point x="200" y="700" type="curve"/>
      <point x="258" y="700" type="line"/>
      <point x="258" y="0" type="line"/>
      <point x="201" y="0" type="line"/>
      <point x="201" y="636" type="line"/>
      <point x="165" y="616"/>
      <point x="71" y="589"/>
      <point x="20" y="583" type="curve"/>
    </contour>
  </outline>
</glyph>
<glyph name="four" format="2">
  <advance width="714" height="962"/>
  <unicode hex="0034"/>
  <outline>
    <contour>
      <point x="505" y="0" type="line"/>
      <point x="505" y="356" type="line"/>
      <point x="18" y="356" type="line"/>
      <point x="309" y="700" type="line"/>
      <point x="378" y="700" type="line"/>
      <point x="144" y="414" type="line"/>
      <point x="505" y="414" type="line"/>
      <point x="505" y="700" type="line"/>
      <point x="563" y="700" type="line"/>
      <point x="563" y="414" type="line"/>
      <point x="687" y="414" type="line"/>
      <point x="666" y="356" type="line"/>
      <point x="563" y="356" type="line"/>
      <point x="563" y="0" type="line"/>
    </contour>
  </outline>
</glyph>
<glyph name="six" format="2">
  <advance width="712" height="962"/>
  <unicode hex="0036"/>
  <outline>
    <contour>
      <point x="409" y="644" type="line" smooth="yes"/>
      <point x="236" y="644"/>
      <point x="106" y="564"/>
      <point x="106" y="452" type="curve" smooth="yes"/>
      <point x="106" y="325" type="line"/>
      <point x="169" y="389"/>
      <point x="271" y="413"/>
      <point x="362" y="413" type="curve" smooth="yes"/>
      <point x="539" y="413"/>
      <point x="686" y="340"/>
      <point x="686" y="201" type="curve" smooth="yes"/>
      <point x="686" y="81"/>
      <point x="545" y="-11"/>
      <point x="367" y="-11" type="curve" smooth="yes"/>
      <point x="188" y="-11"/>
      <point x="47" y="72"/>
      <point x="47" y="201" type="curve" smooth="yes"/>
      <point x="47" y="459" type="line" smooth="yes"/>
      <point x="47" y="601"/>
      <point x="200" y="699"/>
      <point x="413" y="699" type="curve" smooth="yes"/>
      <point x="466" y="699" type="line"/>
      <point x="466" y="644" type="line"/>
    </contour>
    <contour>
      <point x="367" y="358" type="curve" smooth="yes"/>
      <point x="235" y="358"/>
      <point x="108" y="298"/>
      <point x="108" y="201" type="curve" smooth="yes"/>
      <point x="108" y="104"/>
      <point x="225" y="44"/>
      <point x="367" y="44" type="curve" smooth="yes"/>
      <point x="506" y="44"/>
      <point x="625" y="104"/>
      <point x="625" y="201" type="curve" smooth="yes"/>
      <point x="625" y="308"/>
      <point x="496" y="358"/>
    </contour>
  </outline>
</glyph>
<glyph name="seven" format="1">
  <advance width="632" height="962"/>
  <unicode hex="0037"/>
  <outline>
    <contour>
      <point x="121" y="0" type="line"/>
      <point x="51" y="0" type="line"/>
      <point x="542" y="643" type="line"/>
      <point x="26" y="643" type="line"/>
      <point x="26" y="700" type="line"/>
      <point x="614" y="700" type="line"/>
      <point x="614" y="645" type="line"/>
    </contour>
  </outline>
</glyph>
<glyph name="eight" format="2">
  <advance width="725"/>
  <unicode hex="0038"/>
  <outline>
    <contour>
      <point x="349" y="709" type="curve" smooth="yes"/>
      <point x="499" y="709"/>
      <point x="611" y="643"/>
      <point x="611" y="533" type="curve" smooth="yes"/>
      <point x="611" y="467"/>
      <point x="565" y="416"/>
      <point x="487" y="388" type="curve"/>
      <point x="593" y="359"/>
      <point x="668" y="289"/>
      <point x="668" y="201" type="curve" smooth="yes"/>
      <point x="668" y="62"/>
      <point x="536" y="-12"/>
      <point x="347" y="-12" type="curve" smooth="yes"/>
      <point x="159" y="-12"/>
      <point x="28" y="62"/>
      <point x="28" y="201" type="curve" smooth="yes"/>
      <point x="28" y="286"/>
      <point x="103" y="362"/>
      <point x="209" y="389" type="curve"/>
      <point x="136" y="410"/>
      <point x="86" y="476"/>
      <point x="86" y="533" type="curve" smooth="yes"/>
      <point x="86" y="641"/>
      <point x="202" y="709"/>
    </contour>
    <contour>
      <point x="347" y="412" type="curve" smooth="yes"/>
      <point x="459" y="412"/>
      <point x="549" y="467"/>
      <point x="549" y="534" type="curve" smooth="yes"/>
      <point x="549" y="611"/>
      <point x="448" y="656"/>
      <point x="347" y="656" type="curve" smooth="yes"/>
      <point x="248" y="656"/>
      <point x="147" y="611"/>
      <point x="147" y="534" type="curve" smooth="yes"/>
      <point x="147" y="469"/>
      <point x="238" y="412"/>
    </contour>
    <contour>
      <point x="347" y="44" type="curve" smooth="yes"/>
      <point x="489" y="44"/>
      <point x="608" y="95"/>
      <point x="608" y="201" type="curve" smooth="yes"/>
      <point x="608" y="289"/>
      <point x="493" y="357"/>
      <point x="349" y="357" type="curve" smooth="yes"/>
      <point x="210" y="357"/>
      <point x="86" y="287"/>
      <point x="86" y="201" type="curve" smooth="yes"/>
      <point x="86" y="95"/>
      <point x="208" y="44"/>
    </contour>
  </outline>
</glyph>
<glyph name="nine" format="2">
  <advance width="692" height="962"/>
  <unicode hex="0039"/>
  <outline>
    <contour>
      <point x="340" y="709" type="curve" smooth="yes"/>
      <point x="519" y="709"/>
      <point x="660" y="626"/>
      <point x="660" y="497" type="curve" smooth="yes"/>
      <point x="660" y="239" type="line" smooth="yes"/>
      <point x="660" y="97"/>
      <point x="507" y="-1"/>
      <point x="294" y="-1" type="curve" smooth="yes"/>
      <point x="241" y="-1" type="line"/>
      <point x="241" y="54" type="line"/>
      <point x="298" y="54" type="line" smooth="yes"/>
      <point x="471" y="54"/>
      <point x="601" y="134"/>
      <point x="601" y="246" type="curve" smooth="yes"/>
      <point x="601" y="373" type="line"/>
      <point x="538" y="309"/>
      <point x="436" y="285"/>
      <point x="345" y="285" type="curve" smooth="yes"/>
      <point x="168" y="285"/>
      <point x="21" y="358"/>
      <point x="21" y="497" type="curve" smooth="yes"/>
      <point x="21" y="617"/>
      <point x="162" y="709"/>
    </contour>
    <contour>
      <point x="340" y="654" type="curve" smooth="yes"/>
      <point x="201" y="654"/>
      <point x="82" y="594"/>
      <point x="82" y="497" type="curve" smooth="yes"/>
      <point x="82" y="390"/>
      <point x="211" y="340"/>
      <point x="340" y="340" type="curve" smooth="yes"/>
      <point x="472" y="340"/>
      <point x="599" y="400"/>
      <point x="599" y="497" type="curve" smooth="yes"/>
      <point x="599" y="594"/>
      <point x="482" y="654"/>
    </contour>
  </outline>
</glyph>
<glyph name="less" format="2">
  <advance width="563" height="962"/>
  <unicode hex="003C"/>
  <outline>
    <contour>
      <point x="38" y="359" type="line"/>
      <point x="455" y="637" type="line"/>
      <point x="513" y="599" type="line"/>
      <point x="153" y="357" type="line"/>
      <point x="513" y="119" type="line"/>
      <point x="455" y="79" type="line"/>
    </contour>
  </outline>
</glyph>
<glyph name="equal" format="2">
  <advance width="391"/>
  <unicode hex="003D"/>
  <outline>
    <contour>
      <point x="34" y="357" type="line"/>
      <point x="34" y="412" type="line"/>
      <point x="354" y="412" type="line"/>
      <point x="354" y="357" type="line"/>
    </contour>
    <contour>
      <point x="34" y="253" type="line"/>
      <point x="34" y="308" type="line"/>
      <point x="354" y="308" type="line"/>
      <point x="354" y="253" type="line"/>
    </contour>
  </outline>
</glyph>
<glyph name="greater" format="2">
  <advance width="563"/>
  <unicode hex="003E"/>
  <outline>
    <contour>
      <point x="45" y="599" type="line"/>
      <point x="102" y="637" type="line"/>
      <point x="519" y="359" type="line"/>
      <point x="102" y="79" type="line"/>
      <point x="45" y="119" type="line"/>
      <point x="405" y="357" type="line"/>
    </contour>
  </outline>
</glyph>
<glyph name="at" format="1">
  <advance width="1030" height="962"/>
  <unicode hex="0040"/>
  <outline>
    <contour>
      <point x="1019" y="452" type="line"/>
      <point x="985" y="441"/>
      <point x="969" y="419"/>
      <point x="969" y="381" type="curve" smooth="yes"/>
      <point x="970" y="171" type="line" smooth="yes"/>
      <point x="971" y="-8"/>
      <point x="740" y="-66"/>
      <point x="496" y="-66" type="curve" smooth="yes"/>
      <point x="250" y="-66"/>
      <point x="31" y="1"/>
      <point x="31" y="184" type="curve" smooth="yes"/>
      <point x="31" y="339" type="line" smooth="yes"/>
      <point x="31" y="489"/>
      <point x="169" y="579"/>
      <point x="412" y="579" type="curve" smooth="yes"/>
      <point x="628" y="579"/>
      <point x="733" y="518"/>
      <point x="752" y="443" type="curve"/>
      <point x="854" y="443" type="line"/>
      <point x="834" y="389" type="line"/>
      <point x="756" y="389" type="line"/>
      <point x="756" y="69" type="line"/>
      <point x="758" y="69"/>
      <point x="577" y="62"/>
      <point x="508" y="61" type="curve" smooth="yes"/>
      <point x="365" y="58"/>
      <point x="218" y="71"/>
      <point x="218" y="214" type="curve" smooth="yes"/>
      <point x="218" y="299" type="line" smooth="yes"/>
      <point x="218" y="416"/>
      <point x="299" y="443"/>
      <point x="410" y="443" type="curve" smooth="yes"/>
      <point x="693" y="443" type="line"/>
      <point x="666" y="498"/>
      <point x="557" y="531"/>
      <point x="416" y="531" type="curve" smooth="yes"/>
      <point x="248" y="531"/>
      <point x="92" y="477"/>
      <point x="92" y="342" type="curve" smooth="yes"/>
      <point x="92" y="190" type="line" smooth="yes"/>
      <point x="92" y="34"/>
      <point x="270" y="-11"/>
      <point x="508" y="-11" type="curve" smooth="yes"/>
      <point x="708" y="-11"/>
      <point x="912" y="31"/>
      <point x="912" y="169" type="curve" smooth="yes"/>
      <point x="912" y="364" type="line" smooth="yes"/>
      <point x="912" y="434"/>
      <point x="923" y="476"/>
      <point x="997" y="493" type="curve"/>
    </contour>
    <contour>
      <point x="394" y="389" type="line" smooth="yes"/>
      <point x="349" y="389"/>
      <point x="277" y="384"/>
      <point x="277" y="296" type="curve" smooth="yes"/>
      <point x="277" y="218" type="line" smooth="yes"/>
      <point x="277" y="139"/>
      <point x="358" y="112"/>
      <point x="478" y="112" type="curve" smooth="yes"/>
      <point x="583" y="112"/>
      <point x="699" y="121"/>
      <point x="699" y="120" type="curve"/>
      <point x="699" y="389" type="line"/>
    </contour>
  </outline>
</glyph>
<glyph name="A" format="1">
  <advance width="795" height="962"/>
  <unicode hex="0041"/>
  <outline>
    <contour>
      <point x="775" y="0" type="line"/>
      <point x="711" y="0" type="line"/>
      <point x="586" y="245" type="line"/>
      <point x="207" y="245" type="line"/>
      <point x="86" y="0" type="line"/>
      <point x="22" y="0" type="line"/>
      <point x="368" y="700" type="line"/>
      <point x="423" y="700" type="line"/>
    </contour>
    <contour>
      <point x="231" y="300" type="line"/>
      <point x="562" y="300" type="line"/>
      <point x="397" y="640" type="line"/>
    </contour>
  </outline>
</glyph>
<glyph name="B" format="2">
  <advance width="711"/>
  <unicode hex="0042"/>
  <outline>
    <contour>
      <point x="399" y="700" type="line" smooth="yes"/>
      <point x="567" y="700"/>
      <point x="628" y="633"/>
      <point x="628" y="536" type="curve" smooth="yes"/>
      <point x="628" y="468"/>
      <point x="597" y="425"/>
      <point x="533" y="393" type="curve"/>
      <point x="620" y="369"/>
      <point x="682" y="312"/>
      <point x="682" y="209" type="curve" smooth="yes"/>
      <point x="682" y="78"/>
      <point x="606" y="0"/>
      <point x="416" y="0" type="curve" smooth="yes"/>
      <point x="41" y="0" type="line"/>
      <point x="41" y="700" type="line"/>
    </contour>
    <contour>
      <point x="380" y="412" type="line" smooth="yes"/>
      <point x="491" y="412"/>
      <point x="568" y="455"/>
      <point x="568" y="536" type="curve" smooth="yes"/>
      <point x="568" y="606"/>
      <point x="513" y="647"/>
      <point x="397" y="647" type="curve" smooth="yes"/>
      <point x="98" y="647" type="line"/>
      <point x="98" y="412" type="line"/>
    </contour>
    <contour>
      <point x="413" y="53" type="line" smooth="yes"/>
      <point x="547" y="53"/>
      <point x="621" y="96"/>
      <point x="621" y="213" type="curve" smooth="yes"/>
      <point x="621" y="301"/>
      <point x="533" y="357"/>
      <point x="407" y="357" type="curve" smooth="yes"/>
      <point x="98" y="357" type="line"/>
      <point x="98" y="53" type="line"/>
    </contour>
  </outline>
</glyph>
<glyph name="C" format="2">
  <advance width="605"/>
  <unicode hex="0043"/>
  <outline>
    <contour>
      <point x="525" y="638" type="line"/>
      <point x="470" y="653"/>
      <point x="398" y="660"/>
      <point x="346" y="660" type="curve" smooth="yes"/>
      <point x="189" y="660"/>
      <point x="92" y="629"/>
      <point x="92" y="514" type="curve" smooth="yes"/>
      <point x="92" y="186" type="line" smooth="yes"/>
      <point x="92" y="71"/>
      <point x="179" y="40"/>
      <point x="341" y="40" type="curve" smooth="yes"/>
      <point x="399" y="40"/>
      <point x="481" y="51"/>
      <point x="565" y="71" type="curve"/>
      <point x="578" y="23" type="line"/>
      <point x="494" y="1"/>
      <point x="411" y="-10"/>
      <point x="335" y="-10" type="curve" smooth="yes"/>
      <point x="136" y="-10"/>
      <point x="35" y="40"/>
      <point x="35" y="184" type="curve" smooth="yes"/>
      <point x="35" y="510" type="line" smooth="yes"/>
      <point x="35" y="660"/>
      <point x="144" y="710"/>
      <point x="319" y="710" type="curve" smooth="yes"/>
      <point x="397" y="710"/>
      <point x="478" y="699"/>
      <point x="541" y="677" type="curve"/>
    </contour>
  </outline>
</glyph>
<glyph name="F" format="1">
  <advance width="558" height="962"/>
  <unicode hex="0046"/>
  <outline>
    <contour>
      <point x="542" y="700" type="line"/>
      <point x="542" y="647" type="line"/>
      <point x="98" y="647" type="line"/>
      <point x="98" y="412" type="line"/>
      <point x="457" y="412" type="line"/>
      <point x="432" y="357" type="line"/>
      <point x="98" y="357" type="line"/>
      <point x="98" y="0" type="line"/>
      <point x="41" y="0" type="line"/>
      <point x="41" y="700" type="line"/>
    </contour>
  </outline>
</glyph>
<glyph name="K" format="2">
  <advance width="657"/>
  <unicode hex="004B"/>
  <outline>
    <contour>
      <point x="98" y="363" type="line"/>
      <point x="496" y="700" type="line"/>
      <point x="576" y="700" type="line"/>
      <point x="232" y="407" type="line"/>
      <point x="636" y="0" type="line"/>
      <point x="556" y="0" type="line"/>
      <point x="189" y="370" type="line"/>
      <point x="98" y="292" type="line"/>
      <point x="98" y="0" type="line"/>
      <point x="41" y="0" type="line"/>
      <point x="41" y="700" type="line"/>
      <point x="98" y="700" type="line"/>
    </contour>
  </outline>
</glyph>
<glyph name="P" format="2">
  <advance width="721" height="962"/>
  <unicode hex="0050"/>
  <outline>
    <contour>
      <point x="391" y="700" type="line" smooth="yes"/>
      <point x="581" y="700"/>
      <point x="689" y="642"/>
      <point x="689" y="474" type="curve" smooth="yes"/>
      <point x="689" y="308"/>
      <point x="590" y="245"/>
      <point x="391" y="245" type="curve" smooth="yes"/>
      <point x="99" y="245" type="line"/>
      <point x="99" y="0" type="line"/>
      <point x="41" y="0" type="line"/>
      <point x="41" y="700" type="line"/>
    </contour>
    <contour>
      <point x="99" y="300" type="line"/>
      <point x="396" y="300" type="line" smooth="yes"/>
      <point x="520" y="300"/>
      <point x="632" y="321"/>
      <point x="632" y="474" type="curve" smooth="yes"/>
      <point x="632" y="615"/>
      <point x="523" y="647"/>
      <point x="396" y="647" type="curve" smooth="yes"/>
      <point x="99" y="647" type="line"/>
    </contour>
  </outline>
</glyph>
<glyph name="Q" format="2">
  <advance width="701" height="962"/>
  <unicode hex="0051"/>
  <outline>
    <component base="O"/>
    <contour>
      <point x="393" y="50" type="line" smooth="yes"/>
      <point x="393" y="-33"/>
      <point x="464" y="-61"/>
      <point x="594" y="-61" type="curve"/>
      <point x="585" y="-108" type="line"/>
      <point x="411" y="-108"/>
      <point x="336" y="-62"/>
      <point x="336" y="51" type="curve" smooth="yes"/>
      <point x="336" y="174" type="line"/>
      <point x="393" y="174" type="line"/>
    </contour>
  </outline>
</glyph>
<glyph name="R" format="2">
  <advance width="730"/>
  <unicode hex="0052"/>
  <outline>
    <contour>
      <point x="395" y="700" type="line" smooth="yes"/>
      <point x="585" y="700"/>
      <point x="693" y="640"/>
      <point x="693" y="474" type="curve" smooth="yes"/>
      <point x="693" y="363"/>
      <point x="648" y="296"/>
      <point x="555" y="264" type="curve"/>
      <point x="699" y="0" type="line"/>
      <point x="633" y="0" type="line"/>
      <point x="496" y="249" type="line"/>
      <point x="472" y="245"/>
      <point x="442" y="245"/>
      <point x="412" y="245" type="curve" smooth="yes"/>
      <point x="99" y="245" type="line"/>
      <point x="99" y="0" type="line"/>
      <point x="41" y="0" type="line"/>
      <point x="41" y="700" type="line"/>
    </contour>
    <contour>
      <point x="412" y="300" type="line" smooth="yes"/>
      <point x="526" y="300"/>
      <point x="634" y="321"/>
      <point x="634" y="474" type="curve" smooth="yes"/>
      <point x="634" y="615"/>
      <point x="519" y="647"/>
      <point x="402" y="647" type="curve" smooth="yes"/>
      <point x="99" y="647" type="line"/>
      <point x="99" y="300" type="line"/>
    </contour>
  </outline>
</glyph>
<glyph name="S" format="1">
  <advance width="765" height="962"/>
  <unicode hex="0053"/>
  <outline>
    <contour>
      <point x="625" y="622" type="line"/>
      <point x="563" y="644"/>
      <point x="482" y="655"/>
      <point x="411" y="655" type="curve" smooth="yes"/>
      <point x="303" y="655"/>
      <point x="136" y="630"/>
      <point x="136" y="543" type="curve" smooth="yes"/>
      <point x="136" y="390"/>
      <point x="733" y="415"/>
      <point x="733" y="183" type="curve" smooth="yes"/>
      <point x="733" y="43"/>
      <point x="556" y="-13"/>
      <point x="378" y="-13" type="curve" smooth="yes"/>
      <point x="229" y="-13"/>
      <point x="115" y="20"/>
      <point x="22" y="92" type="curve"/>
      <point x="59" y="129" type="line"/>
      <point x="131" y="74"/>
      <point x="250" y="42"/>
      <point x="372" y="42" type="curve" smooth="yes"/>
      <point x="513" y="42"/>
      <point x="667" y="76"/>
      <point x="667" y="181" type="curve" smooth="yes"/>
      <point x="667" y="355"/>
      <point x="74" y="328"/>
      <point x="74" y="538" type="curve" smooth="yes"/>
      <point x="74" y="664"/>
      <point x="247" y="709"/>
      <point x="410" y="709" type="curve" smooth="yes"/>
      <point x="489" y="709"/>
      <point x="569" y="697"/>
      <point x="640" y="672" type="curve"/>
    </contour>
  </outline>
</glyph>
<glyph name="V" format="2">
  <advance width="749"/>
  <unicode hex="0056"/>
  <outline>
    <contour>
      <point x="13" y="700" type="line"/>
      <point x="73" y="700" type="line"/>
      <point x="371" y="67" type="line"/>
      <point x="671" y="700" type="line"/>
      <point x="730" y="700" type="line"/>
      <point x="400" y="0" type="line"/>
      <point x="344" y="0" type="line"/>
    </contour>
  </outline>
</glyph>
<glyph name="W" format="2">
  <advance width="1078"/>
  <unicode hex="0057"/>
  <outline>
    <contour>
      <point x="578" y="700" type="line"/>
      <point x="776" y="62" type="line"/>
      <point x="999" y="700" type="line"/>
      <point x="1059" y="700" type="line"/>
      <point x="815" y="0" type="line"/>
      <point x="736" y="0" type="line"/>
      <point x="540" y="623" type="line"/>
      <point x="342" y="0" type="line"/>
      <point x="263" y="0" type="line"/>
      <point x="15" y="700" type="line"/>
      <point x="76" y="700" type="line"/>
      <point x="302" y="62" type="line"/>
      <point x="499" y="700" type="line"/>
    </contour>
  </outline>
  <guideline angle="102" x="130.047" y="0"/>
</glyph>
<glyph name="Z" format="1">
  <advance width="783" height="962"/>
  <unicode hex="005A"/>
  <outline>
    <contour>
      <point x="745" y="700" type="line"/>
      <point x="745" y="650" type="line"/>
      <point x="105" y="51" type="line"/>
      <point x="752" y="51" type="line"/>
      <point x="752" y="0" type="line"/>
      <point x="22" y="0" type="line"/>
      <point x="22" y="50" type="line"/>
      <point x="658" y="649" type="line"/>
      <point x="40" y="649" type="line"/>
      <point x="40" y="700" type="line"/>
    </contour>
  </outline>
</glyph>
<glyph name="bracketleft" format="2">
  <advance width="335" height="962"/>
  <unicode hex="005B"/>
  <outline>
    <contour>
      <point x="149" y="762" type="line"/>
      <point x="149" y="-59" type="line"/>
      <point x="306" y="-69" type="line"/>
      <point x="306" y="-114" type="line"/>
      <point x="63" y="-114" type="line"/>
      <point x="63" y="818" type="line"/>
      <point x="306" y="818" type="line"/>
      <point x="306" y="772" type="line"/>
    </contour>
  </outline>
</glyph>
<glyph name="grave" format="2">
  <advance width="267" height="962"/>
  <unicode hex="0060"/>
  <outline>
    <contour>
      <point x="114" y="717" type="curve" smooth="yes"/>
      <point x="153" y="610" type="line"/>
      <point x="117" y="610" type="line"/>
      <point x="63" y="689" type="line" smooth="yes"/>
      <point x="52" y="705"/>
      <point x="52" y="728"/>
      <point x="69" y="737" type="curve" smooth="yes"/>
      <point x="88" y="748"/>
      <point x="107" y="736"/>
    </contour>
  </outline>
</glyph>
<glyph name="c" format="2">
  <advance width="540"/>
  <unicode hex="0063"/>
  <outline>
    <contour>
      <point x="493" y="433" type="line"/>
      <point x="440" y="449"/>
      <point x="369" y="459"/>
      <point x="311" y="459" type="curve" smooth="yes"/>
      <point x="170" y="459"/>
      <point x="84" y="416"/>
      <point x="84" y="311" type="curve" smooth="yes"/>
      <point x="84" y="186" type="line" smooth="yes"/>
      <point x="84" y="64"/>
      <point x="173" y="41"/>
      <point x="317" y="41" type="curve" smooth="yes"/>
      <point x="415" y="41"/>
      <point x="503" y="56"/>
      <point x="500" y="55" type="curve"/>
      <point x="512" y="5" type="line"/>
      <point x="450" y="-6"/>
      <point x="380" y="-12"/>
      <point x="314" y="-11" type="curve" smooth="yes"/>
      <point x="141" y="-9"/>
      <point x="28" y="27"/>
      <point x="28" y="174" type="curve" smooth="yes"/>
      <point x="28" y="319" type="line" smooth="yes"/>
      <point x="28" y="452"/>
      <point x="122" y="510"/>
      <point x="308" y="510" type="curve" smooth="yes"/>
      <point x="375" y="510"/>
      <point x="446" y="497"/>
      <point x="509" y="478" type="curve"/>
    </contour>
  </outline>
</glyph>
<glyph name="d" format="2">
  <advance width="652"/>
  <unicode hex="0064"/>
  <outline>
    <contour>
      <point x="606" y="0" type="line"/>
      <point x="609" y="0"/>
      <point x="441" y="-9"/>
      <point x="372" y="-10" type="curve" smooth="yes"/>
      <point x="179" y="-14"/>
      <point x="28" y="1"/>
      <point x="28" y="159" type="curve" smooth="yes"/>
      <point x="28" y="359" type="line" smooth="yes"/>
      <point x="28" y="475"/>
      <point x="161" y="510"/>
      <point x="279" y="510" type="curve" smooth="yes"/>
      <point x="377" y="510"/>
      <point x="480" y="493"/>
      <point x="548" y="473" type="curve"/>
      <point x="548" y="700" type="line"/>
      <point x="606" y="700" type="line"/>
    </contour>
    <contour>
      <point x="548" y="423" type="line"/>
      <point x="468" y="446"/>
      <point x="369" y="463"/>
      <point x="273" y="463" type="curve" smooth="yes"/>
      <point x="222" y="463"/>
      <point x="83" y="452"/>
      <point x="83" y="355" type="curve" smooth="yes"/>
      <point x="83" y="166" type="line" smooth="yes"/>
      <point x="83" y="60"/>
      <point x="165" y="34"/>
      <point x="365" y="38" type="curve" smooth="yes"/>
      <point x="461" y="40"/>
      <point x="548" y="47"/>
      <point x="548" y="46" type="curve"/>
    </contour>
  </outline>
</glyph>
<glyph name="f" format="2">
  <advance width="374" height="962"/>
  <unicode hex="0066"/>
  <outline>
    <contour>
      <point x="303" y="658" type="line"/>
      <point x="288" y="660"/>
      <point x="256" y="660"/>
      <point x="244" y="660" type="curve" smooth="yes"/>
      <point x="152" y="660"/>
      <point x="95" y="643"/>
      <point x="95" y="560" type="curve" smooth="yes"/>
      <point x="95" y="500" type="line"/>
      <point x="295" y="500" type="line"/>
      <point x="271" y="447" type="line"/>
      <point x="95" y="447" type="line"/>
      <point x="95" y="0" type="line"/>
      <point x="39" y="0" type="line"/>
      <point x="39" y="560" type="line" smooth="yes"/>
      <point x="39" y="690"/>
      <point x="145" y="710"/>
      <point x="242" y="710" type="curve" smooth="yes"/>
      <point x="262" y="710"/>
      <point x="300" y="710"/>
      <point x="316" y="707" type="curve"/>
    </contour>
  </outline>
</glyph>
<glyph name="g" format="1">
  <advance width="623" height="962"/>
  <unicode hex="0067"/>
  <outline>
    <contour>
      <point x="584" y="-64" type="line" smooth="yes"/>
      <point x="584" y="-145"/>
      <point x="536" y="-187"/>
      <point x="422" y="-211" type="curve"/>
      <point x="407" y="-168" type="line"/>
      <point x="473" y="-150"/>
      <point x="527" y="-117"/>
      <point x="527" y="-63" type="curve" smooth="yes"/>
      <point x="527" y="61" type="line"/>
      <point x="490" y="18"/>
      <point x="379" y="-12"/>
      <point x="287" y="-12" type="curve" smooth="yes"/>
      <point x="119" y="-12"/>
      <point x="29" y="42"/>
      <point x="29" y="166" type="curve" smooth="yes"/>
      <point x="29" y="355" type="line" smooth="yes"/>
      <point x="29" y="461"/>
      <point x="120" y="515"/>
      <point x="285" y="510" type="curve" smooth="yes"/>
      <point x="357" y="508"/>
      <point x="461" y="489"/>
      <point x="527" y="453" type="curve"/>
      <point x="527" y="500" type="line"/>
      <point x="584" y="500" type="line"/>
    </contour>
    <contour>
      <point x="527" y="393" type="line"/>
      <point x="487" y="434"/>
      <point x="366" y="456"/>
      <point x="303" y="460" type="curve" smooth="yes"/>
      <point x="210" y="466"/>
      <point x="87" y="442"/>
      <point x="87" y="352" type="curve" smooth="yes"/>
      <point x="87" y="157" type="line" smooth="yes"/>
      <point x="87" y="70"/>
      <point x="177" y="40"/>
      <point x="291" y="40" type="curve" smooth="yes"/>
      <point x="407" y="40"/>
      <point x="527" y="89"/>
      <point x="527" y="174" type="curve" smooth="yes"/>
    </contour>
  </outline>
</glyph>
<glyph name="j" format="2">
  <advance width="245"/>
  <unicode hex="006A"/>
  <outline>
    <contour>
      <point x="198" y="-63" type="line" smooth="yes"/>
      <point x="198" y="-145"/>
      <point x="158" y="-185"/>
      <point x="44" y="-210" type="curve"/>
      <point x="26" y="-167" type="line"/>
      <point x="96" y="-150"/>
      <point x="140" y="-110"/>
      <point x="140" y="-62" type="curve" smooth="yes"/>
      <point x="140" y="449" type="line"/>
      <point x="29" y="449" type="line"/>
      <point x="29" y="501" type="line"/>
      <point x="198" y="501" type="line"/>
    </contour>
    <contour>
      <point x="203" y="676" type="curve" smooth="yes"/>
      <point x="203" y="659"/>
      <point x="187" y="643"/>
      <point x="169" y="643" type="curve" smooth="yes"/>
      <point x="151" y="643"/>
      <point x="134" y="659"/>
      <point x="134" y="676" type="curve" smooth="yes"/>
      <point x="134" y="695"/>
      <point x="151" y="709"/>
      <point x="169" y="709" type="curve" smooth="yes"/>
      <point x="187" y="709"/>
      <point x="203" y="695"/>
    </contour>
  </outline>
</glyph>
<glyph name="k" format="2">
  <advance width="611"/>
  <unicode hex="006B"/>
  <outline>
    <contour>
      <point x="255" y="361" type="line"/>
      <point x="591" y="0" type="line"/>
      <point x="511" y="0" type="line"/>
      <point x="204" y="332" type="line"/>
      <point x="98" y="273" type="line"/>
      <point x="98" y="0" type="line"/>
      <point x="41" y="0" type="line"/>
      <point x="41" y="700" type="line"/>
      <point x="98" y="700" type="line"/>
      <point x="98" y="335" type="line"/>
      <point x="429" y="522" type="line"/>
      <point x="462" y="475" type="line"/>
    </contour>
  </outline>
</glyph>
<glyph name="o" format="1">
  <advance width="613" height="962"/>
  <unicode hex="006F"/>
  <outline>
    <contour>
      <point x="584" y="175" type="line" smooth="yes"/>
      <point x="584" y="48"/>
      <point x="493" y="-10"/>
      <point x="311" y="-10" type="curve" smooth="yes"/>
      <point x="124" y="-10"/>
      <point x="28" y="57"/>
      <point x="28" y="175" type="curve" smooth="yes"/>
      <point x="28" y="325" type="line" smooth="yes"/>
      <point x="28" y="461"/>
      <point x="130" y="512"/>
      <point x="308" y="512" type="curve" smooth="yes"/>
      <point x="487" y="512"/>
      <point x="584" y="458"/>
      <point x="584" y="326" type="curve" smooth="yes"/>
    </contour>
    <contour>
      <point x="526" y="326" type="line" smooth="yes"/>
      <point x="526" y="432"/>
      <point x="442" y="462"/>
      <point x="311" y="462" type="curve" smooth="yes"/>
      <point x="179" y="462"/>
      <point x="85" y="430"/>
      <point x="85" y="325" type="curve" smooth="yes"/>
      <point x="85" y="165" type="line" smooth="yes"/>
      <point x="85" y="75"/>
      <point x="190" y="40"/>
      <point x="311" y="40" type="curve" smooth="yes"/>
      <point x="437" y="40"/>
      <point x="526" y="73"/>
      <point x="526" y="165" type="curve" smooth="yes"/>
    </contour>
  </outline>
</glyph>
<glyph name="r" format="2">
  <advance width="467"/>
  <unicode hex="0072"/>
  <outline>
    <contour>
      <point x="442" y="461" type="line"/>
      <point x="442" y="461"/>
      <point x="410" y="463"/>
      <point x="377" y="462" type="curve" smooth="yes"/>
      <point x="293" y="460"/>
      <point x="149" y="436"/>
      <point x="95" y="413" type="curve"/>
      <point x="95" y="0" type="line"/>
      <point x="38" y="0" type="line"/>
      <point x="38" y="501" type="line"/>
      <point x="95" y="501" type="line"/>
      <point x="95" y="468" type="line"/>
      <point x="168" y="490"/>
      <point x="271" y="508"/>
      <point x="379" y="512" type="curve" smooth="yes"/>
      <point x="415" y="513"/>
      <point x="446" y="509"/>
      <point x="446" y="509" type="curve"/>
    </contour>
  </outline>
</glyph>
<glyph name="s" format="1">
  <advance width="600" height="962"/>
  <unicode hex="0073"/>
  <outline>
    <contour>
      <point x="489" y="437" type="line"/>
      <point x="449" y="453"/>
      <point x="375" y="465"/>
      <point x="326" y="465" type="curve" smooth="yes"/>
      <point x="245" y="465"/>
      <point x="121" y="456"/>
      <point x="121" y="392" type="curve" smooth="yes"/>
      <point x="121" y="283"/>
      <point x="569" y="299"/>
      <point x="569" y="128" type="curve" smooth="yes"/>
      <point x="569" y="28"/>
      <point x="441" y="-18"/>
      <point x="309" y="-18" type="curve" smooth="yes"/>
      <point x="203" y="-18"/>
      <point x="96" y="15"/>
      <point x="27" y="68" type="curve"/>
      <point x="57" y="103" type="line"/>
      <point x="124" y="58"/>
      <point x="216" y="34"/>
      <point x="309" y="34" type="curve" smooth="yes"/>
      <point x="396" y="34"/>
      <point x="510" y="61"/>
      <point x="510" y="123" type="curve" smooth="yes"/>
      <point x="510" y="251"/>
      <point x="65" y="233"/>
      <point x="65" y="388" type="curve" smooth="yes"/>
      <point x="65" y="482"/>
      <point x="185" y="512"/>
      <point x="309" y="512" type="curve" smooth="yes"/>
      <point x="369" y="512"/>
      <point x="434" y="506"/>
      <point x="507" y="477" type="curve"/>
    </contour>
  </outline>
</glyph>
<glyph name="u" format="1">
  <advance width="630" height="962"/>
  <unicode hex="0075"/>
  <outline>
    <contour>
      <point x="534" y="64" type="line"/>
      <point x="481" y="7"/>
      <point x="371" y="-10"/>
      <point x="296" y="-10" type="curve" smooth="yes"/>
      <point x="130" y="-10"/>
      <point x="34" y="43"/>
      <point x="34" y="157" type="curve" smooth="yes"/>
      <point x="34" y="501" type="line"/>
      <point x="90" y="501" type="line"/>
      <point x="90" y="171" type="line" smooth="yes"/>
      <point x="90" y="69"/>
      <point x="185" y="44"/>
      <point x="299" y="44" type="curve" smooth="yes"/>
      <point x="419" y="44"/>
      <point x="534" y="102"/>
      <point x="534" y="173" type="curve" smooth="yes"/>
      <point x="534" y="501" type="line"/>
      <point x="591" y="501" type="line"/>
      <point x="591" y="0" type="line"/>
      <point x="534" y="0" type="line"/>
    </contour>
  </outline>
</glyph>
<glyph name="w" format="1">
  <advance width="1049" height="962"/>
  <unicode hex="0077"/>
  <outline>
    <contour>
      <point x="551" y="499" type="line"/>
      <point x="760" y="57" type="line"/>
      <point x="962" y="499" type="line"/>
      <point x="1024" y="499" type="line"/>
      <point x="792" y="0" type="line"/>
      <point x="732" y="0" type="line"/>
      <point x="521" y="435" type="line"/>
      <point x="309" y="0" type="line"/>
      <point x="250" y="0" type="line"/>
      <point x="18" y="499" type="line"/>
      <point x="80" y="499" type="line"/>
      <point x="282" y="57" type="line"/>
      <point x="494" y="499" type="line"/>
    </contour>
  </outline>
</glyph>
<glyph name="x" format="1">
  <advance width="642" height="962"/>
  <unicode hex="0078"/>
  <outline>
    <contour>
      <point x="325" y="288" type="line"/>
      <point x="534" y="500" type="line"/>
      <point x="612" y="500" type="line"/>
      <point x="364" y="249" type="line"/>
      <point x="608" y="0" type="line"/>
      <point x="527" y="0" type="line"/>
      <point x="325" y="207" type="line"/>
      <point x="119" y="0" type="line"/>
      <point x="39" y="0" type="line"/>
      <point x="285" y="249" type="line"/>
      <point x="36" y="500" type="line"/>
      <point x="117" y="500" type="line"/>
    </contour>
  </outline>
</glyph>
<glyph name="y" format="2">
  <advance width="654"/>
  <unicode hex="0079"/>
  <outline>
    <contour>
      <point x="632" y="470" type="line"/>
      <point x="608" y="462"/>
      <point x="589" y="450"/>
      <point x="589" y="408" type="curve" smooth="yes"/>
      <point x="589" y="-62" type="line" smooth="yes"/>
      <point x="589" y="-151"/>
      <point x="545" y="-187"/>
      <point x="431" y="-209" type="curve"/>
      <point x="411" y="-166" type="line"/>
      <point x="485" y="-147"/>
      <point x="532" y="-121"/>
      <point x="532" y="-61" type="curve" smooth="yes"/>
      <point x="532" y="67" type="line"/>
      <point x="480" y="11"/>
      <point x="371" y="-9"/>
      <point x="296" y="-9" type="curve" smooth="yes"/>
      <point x="130" y="-9"/>
      <point x="34" y="24"/>
      <point x="34" y="148" type="curve" smooth="yes"/>
      <point x="34" y="501" type="line"/>
      <point x="91" y="501" type="line"/>
      <point x="91" y="156" type="line" smooth="yes"/>
      <point x="91" y="43"/>
      <point x="204" y="44"/>
      <point x="307" y="44" type="curve" smooth="yes"/>
      <point x="414" y="44"/>
      <point x="532" y="104"/>
      <point x="532" y="174" type="curve" smooth="yes"/>
      <point x="532" y="409" type="line" smooth="yes"/>
      <point x="532" y="455"/>
      <point x="542" y="496"/>
      <point x="608" y="512" type="curve"/>
    </contour>
  </outline>
</glyph>
<glyph name="asciitilde" format="1">
  <advance width="267" height="962"/>
  <unicode hex="007E"/>
  <outline>
    <contour>
      <point x="289" y="306" type="line"/>
      <point x="258" y="273"/>
      <point x="230" y="262"/>
      <point x="205" y="263" type="curve" smooth="yes"/>
      <point x="158" y="264"/>
      <point x="115" y="297"/>
      <point x="69" y="299" type="curve" smooth="yes"/>
      <point x="48" y="301"/>
      <point x="26" y="295"/>
      <point x="2" y="272" type="curve"/>
      <point x="-21" y="313" type="line"/>
      <point x="9" y="344"/>
      <point x="36" y="354"/>
      <point x="61" y="354" type="curve" smooth="yes"/>
      <point x="112" y="354"/>
      <point x="157" y="317"/>
      <point x="203" y="318" type="curve" smooth="yes"/>
      <point x="228" y="319"/>
      <point x="248" y="330"/>
      <point x="264" y="347" type="curve"/>
    </contour>
  </outline>
</glyph>
<glyph name="cent" format="2">
  <advance width="540"/>
  <unicode hex="00A2"/>
  <outline>
    <component base="c"/>
    <contour>
      <point x="263" y="-114" type="line"/>
      <point x="263" y="623" type="line"/>
      <point x="320" y="623" type="line"/>
      <point x="320" y="-114" type="line"/>
    </contour>
  </outline>
</glyph>
<glyph name="sterling" format="2">
  <advance width="610" height="962"/>
  <unicode hex="00A3"/>
  <outline>
    <contour>
      <point x="164" y="53" type="line" smooth="yes"/>
      <point x="290" y="53"/>
      <point x="431" y="90"/>
      <point x="431" y="182" type="curve" smooth="yes"/>
      <point x="431" y="226"/>
      <point x="399" y="259"/>
      <point x="358" y="292" type="curve" smooth="yes"/>
      <point x="297" y="340" type="line"/>
      <point x="34" y="340" type="line"/>
      <point x="34" y="397" type="line"/>
      <point x="216" y="397" type="line"/>
      <point x="186" y="420" type="line" smooth="yes"/>
      <point x="124" y="468"/>
      <point x="79" y="508"/>
      <point x="79" y="571" type="curve" smooth="yes"/>
      <point x="79" y="657"/>
      <point x="180" y="708"/>
      <point x="313" y="708" type="curve" smooth="yes"/>
      <point x="384" y="708"/>
      <point x="459" y="695"/>
      <point x="525" y="671" type="curve"/>
      <point x="499" y="622" type="line"/>
      <point x="438" y="648"/>
      <point x="364" y="657"/>
      <point x="303" y="656" type="curve" smooth="yes"/>
      <point x="215" y="655"/>
      <point x="142" y="626"/>
      <point x="141" y="571" type="curve" smooth="yes"/>
      <point x="140" y="518"/>
      <point x="196" y="486"/>
      <point x="236" y="455" type="curve" smooth="yes"/>
      <point x="311" y="397" type="line"/>
      <point x="573" y="397" type="line"/>
      <point x="573" y="340" type="line"/>
      <point x="389" y="340" type="line"/>
      <point x="407" y="325" type="line" smooth="yes"/>
      <point x="457" y="283"/>
      <point x="496" y="237"/>
      <point x="496" y="181" type="curve" smooth="yes"/>
      <point x="496" y="130"/>
      <point x="456" y="80"/>
      <point x="390" y="53" type="curve"/>
      <point x="573" y="53" type="line"/>
      <point x="573" y="0" type="line"/>
      <point x="34" y="0" type="line"/>
      <point x="34" y="53" type="line"/>
    </contour>
  </outline>
</glyph>
<glyph name="copyright" format="1">
  <advance width="1009" height="962"/>
  <unicode hex="00A9"/>
  <outline>
    <contour>
      <point x="979" y="178" type="line" smooth="yes"/>
      <point x="979" y="6"/>
      <point x="781" y="-69"/>
      <point x="504" y="-69" type="curve" smooth="yes"/>
      <point x="229" y="-69"/>
      <point x="30" y="6"/>
      <point x="30" y="178" type="curve" smooth="yes"/>
      <point x="30" y="333" type="line" smooth="yes"/>
      <point x="30" y="503"/>
      <point x="221" y="584"/>
      <point x="504" y="584" type="curve" smooth="yes"/>
      <point x="781" y="584"/>
      <point x="979" y="497"/>
      <point x="979" y="327" type="curve" smooth="yes"/>
    </contour>
    <contour>
      <point x="922" y="304" type="line" smooth="yes"/>
      <point x="922" y="469"/>
      <point x="768" y="530"/>
      <point x="504" y="530" type="curve" smooth="yes"/>
      <point x="241" y="530"/>
      <point x="89" y="478"/>
      <point x="89" y="315" type="curve" smooth="yes"/>
      <point x="89" y="193" type="line" smooth="yes"/>
      <point x="89" y="40"/>
      <point x="241" y="-15"/>
      <point x="504" y="-15" type="curve" smooth="yes"/>
      <point x="768" y="-15"/>
      <point x="922" y="38"/>
      <point x="922" y="199" type="curve" smooth="yes"/>
    </contour>
    <contour>
      <point x="724" y="384" type="line"/>
      <point x="670" y="398"/>
      <point x="591" y="405"/>
      <point x="540" y="405" type="curve" smooth="yes"/>
      <point x="393" y="405"/>
      <point x="291" y="383"/>
      <point x="291" y="263" type="curve" smooth="yes"/>
      <point x="291" y="149"/>
      <point x="377" y="109"/>
      <point x="528" y="109" type="curve" smooth="yes"/>
      <point x="588" y="109"/>
      <point x="676" y="116"/>
      <point x="761" y="135" type="curve"/>
      <point x="775" y="91" type="line"/>
      <point x="691" y="69"/>
      <point x="609" y="58"/>
      <point x="531" y="58" type="curve" smooth="yes"/>
      <point x="342" y="58"/>
      <point x="234" y="114"/>
      <point x="234" y="258" type="curve" smooth="yes"/>
      <point x="234" y="402"/>
      <point x="336" y="455"/>
      <point x="523" y="455" type="curve" smooth="yes"/>
      <point x="600" y="455"/>
      <point x="675" y="444"/>
      <point x="738" y="421" type="curve"/>
    </contour>
  </outline>
</glyph>
<glyph name="guillemotleft" format="2">
  <advance width="769"/>
  <unicode hex="00AB"/>
  <outline>
    <contour>
      <point x="488" y="267" type="line"/>
      <point x="713" y="417" type="line"/>
      <point x="659" y="455" type="line"/>
      <point x="377" y="267" type="line"/>
      <point x="659" y="79" type="line"/>
      <point x="710" y="114" type="line"/>
    </contour>
    <contour>
      <point x="160" y="267" type="line"/>
      <point x="383" y="417" type="line"/>
      <point x="328" y="455" type="line"/>
      <point x="47" y="267" type="line"/>
      <point x="328" y="79" type="line"/>
      <point x="380" y="114" type="line"/>
    </contour>
  </outline>
</glyph>
<glyph name="degree" format="1">
  <advance width="350" height="962"/>
  <unicode hex="00B0"/>
  <outline>
    <contour>
      <point x="322" y="565" type="curve" smooth="yes"/>
      <point x="322" y="485"/>
      <point x="257" y="419"/>
      <point x="177" y="419" type="curve" smooth="yes"/>
      <point x="96" y="419"/>
      <point x="30" y="485"/>
      <point x="30" y="565" type="curve" smooth="yes"/>
      <point x="30" y="645"/>
      <point x="96" y="710"/>
      <point x="177" y="710" type="curve" smooth="yes"/>
      <point x="257" y="710"/>
      <point x="322" y="645"/>
    </contour>
    <contour>
      <point x="177" y="660" type="curve" smooth="yes"/>
      <point x="125" y="660"/>
      <point x="81" y="616"/>
      <point x="81" y="565" type="curve" smooth="yes"/>
      <point x="81" y="515"/>
      <point x="125" y="471"/>
      <point x="177" y="471" type="curve" smooth="yes"/>
      <point x="228" y="471"/>
      <point x="271" y="515"/>
      <point x="271" y="565" type="curve" smooth="yes"/>
      <point x="271" y="616"/>
      <point x="228" y="660"/>
    </contour>
  </outline>
</glyph>
<glyph name="plusminus" format="2">
  <advance width="575"/>
  <unicode hex="00B1"/>
  <outline>
    <contour>
      <point x="47" y="378" type="line"/>
      <point x="47" y="432" type="line"/>
      <point x="248" y="432" type="line"/>
      <point x="248" y="565" type="line"/>
      <point x="330" y="565" type="line"/>
      <point x="330" y="432" type="line"/>
      <point x="527" y="432" type="line"/>
      <point x="527" y="378" type="line"/>
      <point x="330" y="378" type="line"/>
      <point x="330" y="247" type="line"/>
      <point x="525" y="247" type="line"/>
      <point x="525" y="190" type="line"/>
      <point x="45" y="190" type="line"/>
      <point x="45" y="247" type="line"/>
      <point x="248" y="247" type="line"/>
      <point x="248" y="378" type="line"/>
    </contour>
  </outline>
</glyph>
<glyph name="acute" format="2">
  <advance width="267"/>
  <unicode hex="00B4"/>
  <outline>
    <contour>
      <point x="197" y="684" type="curve" smooth="yes"/>
      <point x="144" y="605" type="line"/>
      <point x="109" y="605" type="line"/>
      <point x="147" y="712" type="line" smooth="yes"/>
      <point x="153" y="731"/>
      <point x="172" y="741"/>
      <point x="190" y="731" type="curve" smooth="yes"/>
      <point x="208" y="721"/>
      <point x="208" y="701"/>
    </contour>
  </outline>
</glyph>
<glyph name="paragraph" format="2">
  <advance width="885"/>
  <unicode hex="00B6"/>
  <outline>
    <contour>
      <point x="317" y="247" type="line" smooth="yes"/>
      <point x="113" y="247"/>
      <point x="29" y="310"/>
      <point x="29" y="476" type="curve" smooth="yes"/>
      <point x="29" y="647"/>
      <point x="119" y="702"/>
      <point x="317" y="702" type="curve" smooth="yes"/>
      <point x="843" y="702" type="line"/>
      <point x="843" y="1" type="line"/>
      <point x="790" y="1" type="line"/>
      <point x="790" y="649" type="line"/>
      <point x="680" y="649" type="line"/>
      <point x="680" y="1" type="line"/>
      <point x="627" y="1" type="line"/>
      <point x="627" y="247" type="line"/>
    </contour>
    <contour>
      <point x="301" y="649" type="line" smooth="yes"/>
      <point x="174" y="649"/>
      <point x="84" y="617"/>
      <point x="84" y="476" type="curve" smooth="yes"/>
      <point x="84" y="323"/>
      <point x="187" y="301"/>
      <point x="311" y="301" type="curve" smooth="yes"/>
      <point x="627" y="301" type="line"/>
      <point x="627" y="649" type="line"/>
    </contour>
  </outline>
</glyph>
<glyph name="guillemotright" format="2">
  <advance width="756" height="962"/>
  <unicode hex="00BB"/>
  <outline>
    <contour>
      <point x="272" y="267" type="line"/>
      <point x="47" y="417" type="line"/>
      <point x="101" y="455" type="line"/>
      <point x="383" y="267" type="line"/>
      <point x="101" y="79" type="line"/>
      <point x="50" y="114" type="line"/>
    </contour>
    <contour>
      <point x="600" y="267" type="line"/>
      <point x="377" y="417" type="line"/>
      <point x="432" y="455" type="line"/>
      <point x="713" y="267" type="line"/>
      <point x="432" y="79" type="line"/>
      <point x="380" y="114" type="line"/>
    </contour>
  </outline>
</glyph>
<glyph name="questiondown" format="2">
  <advance width="581" height="962"/>
  <unicode hex="00BF"/>
  <outline>
    <contour>
      <point x="551" y="168" type="line"/>
      <point x="551" y="46"/>
      <point x="415" y="-9"/>
      <point x="283" y="-9" type="curve" smooth="yes"/>
      <point x="151" y="-9"/>
      <point x="25" y="53"/>
      <point x="25" y="162" type="curve" smooth="yes"/>
      <point x="25" y="240"/>
      <point x="95" y="293"/>
      <point x="161" y="336" type="curve" smooth="yes"/>
      <point x="224" y="377"/>
      <point x="274" y="410"/>
      <point x="274" y="493" type="curve" smooth="yes"/>
      <point x="274" y="580" type="line"/>
      <point x="329" y="580" type="line"/>
      <point x="329" y="488" type="line" smooth="yes"/>
      <point x="329" y="399"/>
      <point x="284" y="355"/>
      <point x="223" y="313" type="curve" smooth="yes"/>
      <point x="164" y="272"/>
      <point x="83" y="231"/>
      <point x="83" y="165" type="curve" smooth="yes"/>
      <point x="83" y="78"/>
      <point x="189" y="44"/>
      <point x="283" y="44" type="curve" smooth="yes"/>
      <point x="383" y="44"/>
      <point x="494" y="72"/>
      <point x="494" y="168" type="curve"/>
    </contour>
    <contour>
      <point x="300" y="709" type="curve" smooth="yes"/>
      <point x="319" y="709"/>
      <point x="335" y="694"/>
      <point x="335" y="676" type="curve" smooth="yes"/>
      <point x="335" y="657"/>
      <point x="319" y="643"/>
      <point x="300" y="643" type="curve" smooth="yes"/>
      <point x="283" y="643"/>
      <point x="267" y="657"/>
      <point x="267" y="676" type="curve" smooth="yes"/>
      <point x="267" y="694"/>
      <point x="283" y="709"/>
    </contour>
  </outline>
</glyph>
<glyph name="AE" format="2">
  <advance width="1096" height="962"/>
  <unicode hex="00C6"/>
  <outline>
    <contour>
      <point x="575" y="0" type="line"/>
      <point x="575" y="244" type="line"/>
      <point x="221" y="244" type="line"/>
      <point x="79" y="0" type="line"/>
      <point x="16" y="0" type="line"/>
      <point x="424" y="700" type="line"/>
      <point x="1064" y="700" type="line"/>
      <point x="1064" y="647" type="line"/>
      <point x="629" y="647" type="line"/>
      <point x="629" y="414" type="line"/>
      <point x="936" y="414" type="line"/>
      <point x="917" y="356" type="line"/>
      <point x="629" y="356" type="line"/>
      <point x="629" y="50" type="line"/>
      <point x="1064" y="50" type="line"/>
      <point x="1064" y="0" type="line"/>
    </contour>
    <contour>
      <point x="253" y="300" type="line"/>
      <point x="575" y="300" type="line"/>
      <point x="575" y="647" type="line"/>
      <point x="455" y="647" type="line"/>
    </contour>
  </outline>
</glyph>
<glyph name="Eth" format="1">
  <advance width="708" height="962"/>
  <unicode hex="00D0"/>
  <outline>
    <component base="D"/>
    <contour>
      <point x="68" y="357" type="line"/>
      <point x="68" y="412" type="line"/>
      <point x="411" y="412" type="line"/>
      <point x="394" y="357" type="line"/>
    </contour>
  </outline>
</glyph>
<glyph name="Oslash" format="2">
  <advance width="701" height="962"/>
  <unicode hex="00D8"/>
  <outline>
    <component base="O"/>
    <contour>
      <point x="62" y="-1" type="line"/>
      <point x="586" y="700" type="line"/>
      <point x="651" y="700" type="line"/>
      <point x="135" y="-1" type="line"/>
    </contour>
  </outline>
</glyph>
<glyph name="Thorn" format="2">
  <advance width="721" height="962"/>
  <unicode hex="00DE"/>
  <outline>
    <contour>
      <point x="391" y="611" type="line" smooth="yes"/>
      <point x="581" y="611"/>
      <point x="689" y="553"/>
      <point x="689" y="385" type="curve" smooth="yes"/>
      <point x="689" y="219"/>
      <point x="590" y="156"/>
      <point x="391" y="156" type="curve" smooth="yes"/>
      <point x="99" y="156" type="line"/>
      <point x="99" y="0" type="line"/>
      <point x="41" y="0" type="line"/>
      <point x="41" y="700" type="line"/>
      <point x="99" y="700" type="line"/>
      <point x="99" y="611" type="line"/>
    </contour>
    <contour>
      <point x="99" y="211" type="line"/>
      <point x="396" y="211" type="line" smooth="yes"/>
      <point x="520" y="211"/>
      <point x="632" y="232"/>
      <point x="632" y="385" type="curve" smooth="yes"/>
      <point x="632" y="526"/>
      <point x="523" y="558"/>
      <point x="396" y="558" type="curve" smooth="yes"/>
      <point x="99" y="558" type="line"/>
    </contour>
  </outline>
</glyph>
<glyph name="germandbls" format="2">
  <advance width="668"/>
  <unicode hex="00DF"/>
  <outline>
    <contour>
      <point x="96" y="0" type="line"/>
      <point x="39" y="0" type="line"/>
      <point x="39" y="545" type="line" smooth="yes"/>
      <point x="39" y="658"/>
      <point x="104" y="701"/>
      <point x="234" y="700" type="curve" smooth="yes"/>
      <point x="369" y="699"/>
      <point x="438" y="643"/>
      <point x="438" y="569" type="curve" smooth="yes"/>
      <point x="438" y="532"/>
      <point x="424" y="499"/>
      <point x="384" y="477" type="curve"/>
      <point x="387" y="477"/>
      <point x="337" y="477"/>
      <point x="339" y="477" type="curve"/>
      <point x="327" y="465"/>
      <point x="324" y="453"/>
      <point x="326" y="440" type="curve" smooth="yes"/>
      <point x="340" y="365"/>
      <point x="639" y="304"/>
      <point x="639" y="149" type="curve" smooth="yes"/>
      <point x="639" y="37"/>
      <point x="528" y="-7"/>
      <point x="405" y="-11" type="curve" smooth="yes"/>
      <point x="324" y="-13"/>
      <point x="241" y="4"/>
      <point x="181" y="36" type="curve"/>
      <point x="207" y="79" type="line"/>
      <point x="258" y="52"/>
      <point x="330" y="42"/>
      <point x="391" y="42" type="curve" smooth="yes"/>
      <point x="475" y="42"/>
      <point x="582" y="72"/>
      <point x="582" y="149" type="curve" smooth="yes"/>
      <point x="582" y="268"/>
      <point x="284" y="324"/>
      <point x="269" y="434" type="curve" smooth="yes"/>
      <point x="266" y="457"/>
      <point x="272" y="482"/>
      <point x="294" y="508" type="curve"/>
      <point x="362" y="508"/>
      <point x="380" y="537"/>
      <point x="380" y="574" type="curve" smooth="yes"/>
      <point x="380" y="620"/>
      <point x="303" y="647"/>
      <point x="240" y="647" type="curve" smooth="yes"/>
      <point x="156" y="647"/>
      <point x="96" y="631"/>
      <point x="96" y="551" type="curve" smooth="yes"/>
    </contour>
  </outline>
</glyph>
<glyph name="lslash" format="2">
  <advance width="443"/>
  <unicode hex="0142"/>
  <outline>
    <component base="l" xOffset="148"/>
    <contour>
      <point x="406" y="489" type="line"/>
      <point x="424" y="439" type="line"/>
      <point x="36" y="308" type="line"/>
      <point x="20" y="357" type="line"/>
    </contour>
  </outline>
</glyph>
<glyph name="tbar" format="2">
  <advance width="367" height="962"/>
  <unicode hex="0167"/>
  <outline>
    <component base="t" xOffset="38"/>
    <contour>
      <point x="314" y="303" type="line"/>
      <point x="0" y="303" type="line"/>
      <point x="0" y="356" type="line"/>
      <point x="314" y="356" type="line"/>
    </contour>
  </outline>
</glyph>
<glyph name="dotlessj" format="2">
  <advance width="239" height="962"/>
  <unicode hex="0237"/>
  <outline>
    <contour>
      <point x="201" y="-53" type="line" smooth="yes"/>
      <point x="201" y="-135"/>
      <point x="165" y="-180"/>
      <point x="49" y="-210" type="curve"/>
      <point x="25" y="-167" type="line"/>
      <point x="94" y="-149"/>
      <point x="144" y="-111"/>
      <point x="144" y="-62" type="curve" smooth="yes"/>
      <point x="144" y="449" type="line"/>
      <point x="28" y="449" type="line"/>
      <point x="28" y="501" type="line"/>
      <point x="201" y="501" type="line"/>
    </contour>
  </outline>
</glyph>
<glyph name="ogonekcomb" format="2">
  <advance width="267" height="962"/>
  <unicode hex="0328"/>
  <outline>
    <contour>
      <point x="162" y="11" type="line"/>
      <point x="162" y="2" type="line"/>
      <point x="91" y="-113" type="line" smooth="yes"/>
      <point x="63" y="-158"/>
      <point x="91" y="-192"/>
      <point x="140" y="-175" type="curve" smooth="yes"/>
      <point x="195" y="-155"/>
      <point x="236" y="-141"/>
      <point x="237" y="-141" type="curve"/>
      <point x="255" y="-180" type="line"/>
      <point x="256" y="-180"/>
      <point x="168" y="-212"/>
      <point x="151" y="-217" type="curve" smooth="yes"/>
      <point x="61" y="-241"/>
      <point x="9" y="-168"/>
      <point x="53" y="-99" type="curve" smooth="yes"/>
      <point x="118" y="3" type="line"/>
      <point x="118" y="11" type="line"/>
    </contour>
  </outline>
</glyph>
<glyph name="Deltagreek" format="2">
  <advance width="795" height="962"/>
  <unicode hex="0394"/>
  <outline>
    <contour>
      <point x="775" y="0" type="line"/>
      <point x="22" y="0" type="line"/>
      <point x="363" y="700" type="line"/>
      <point x="429" y="700" type="line"/>
    </contour>
    <contour>
      <point x="110" y="50" type="line"/>
      <point x="687" y="50" type="line"/>
      <point x="398" y="643" type="line"/>
    </contour>
  </outline>
</glyph>
<glyph name="Eta" format="2">
  <advance width="720" height="962"/>
  <unicode hex="0397"/>
  <outline>
    <contour>
      <point x="624" y="412" type="line"/>
      <point x="624" y="700" type="line"/>
      <point x="678" y="700" type="line"/>
      <point x="678" y="0" type="line"/>
      <point x="624" y="0" type="line"/>
      <point x="624" y="357" type="line"/>
      <point x="98" y="357" type="line"/>
      <point x="98" y="0" type="line"/>
      <point x="41" y="0" type="line"/>
      <point x="41" y="700" type="line"/>
      <point x="98" y="700" type="line"/>
      <point x="98" y="412" type="line"/>
    </contour>
  </outline>
</glyph>
<glyph name="Lambda" format="2">
  <advance width="795"/>
  <unicode hex="039B"/>
  <outline>
    <contour>
      <point x="398" y="638" type="line"/>
      <point x="85" y="0" type="line"/>
      <point x="20" y="0" type="line"/>
      <point x="365" y="700" type="line"/>
      <point x="433" y="700" type="line"/>
      <point x="775" y="0" type="line"/>
      <point x="711" y="0" type="line"/>
    </contour>
  </outline>
</glyph>
<glyph name="Xi" format="2">
  <advance width="820" height="962"/>
  <unicode hex="039E"/>
  <outline>
    <contour>
      <point x="23" y="595" type="line"/>
      <point x="56" y="670"/>
      <point x="113" y="700"/>
      <point x="232" y="700" type="curve" smooth="yes"/>
      <point x="749" y="700" type="line"/>
      <point x="728" y="650" type="line"/>
      <point x="212" y="650" type="line" smooth="yes"/>
      <point x="134" y="650"/>
      <point x="94" y="627"/>
      <point x="67" y="579" type="curve"/>
    </contour>
    <contour>
      <point x="612" y="307" type="line"/>
      <point x="213" y="307" type="line"/>
      <point x="213" y="363" type="line"/>
      <point x="612" y="363" type="line"/>
    </contour>
    <contour>
      <point x="599" y="53" type="line" smooth="yes"/>
      <point x="677" y="53"/>
      <point x="718" y="77"/>
      <point x="745" y="123" type="curve"/>
      <point x="789" y="107" type="line"/>
      <point x="756" y="32"/>
      <point x="700" y="0"/>
      <point x="579" y="0" type="curve" smooth="yes"/>
      <point x="61" y="0" type="line"/>
      <point x="86" y="53" type="line"/>
    </contour>
  </outline>
</glyph>
<glyph name="Sigma" format="2">
  <advance width="761" height="962"/>
  <unicode hex="03A3"/>
  <outline>
    <contour>
      <point x="525" y="50" type="line" smooth="yes"/>
      <point x="602" y="50"/>
      <point x="662" y="76"/>
      <point x="684" y="122" type="curve"/>
      <point x="729" y="107" type="line"/>
      <point x="696" y="32"/>
      <point x="630" y="0"/>
      <point x="511" y="0" type="curve" smooth="yes"/>
      <point x="27" y="0" type="line"/>
      <point x="364" y="386" type="line"/>
      <point x="51" y="701" type="line"/>
      <point x="694" y="700" type="line"/>
      <point x="676" y="647" type="line"/>
      <point x="180" y="647" type="line"/>
      <point x="439" y="387" type="line"/>
      <point x="144" y="50" type="line"/>
    </contour>
  </outline>
</glyph>
<glyph name="Phi" format="2">
  <advance width="859" height="962"/>
  <unicode hex="03A6"/>
  <outline>
    <contour>
      <point x="226" y="661" type="line"/>
      <point x="134" y="647"/>
      <point x="88" y="598"/>
      <point x="88" y="518" type="curve" smooth="yes"/>
      <point x="88" y="219" type="line" smooth="yes"/>
      <point x="88" y="130"/>
      <point x="188" y="79"/>
      <point x="309" y="79" type="curve" smooth="yes"/>
      <point x="397" y="79" type="line"/>
      <point x="397" y="585" type="line" smooth="yes"/>
      <point x="397" y="662"/>
      <point x="459" y="710"/>
      <point x="552" y="710" type="curve" smooth="yes"/>
      <point x="729" y="710"/>
      <point x="823" y="635"/>
      <point x="823" y="503" type="curve" smooth="yes"/>
      <point x="823" y="232" type="line" smooth="yes"/>
      <point x="823" y="112"/>
      <point x="745" y="30"/>
      <point x="553" y="30" type="curve" smooth="yes"/>
      <point x="454" y="30" type="line"/>
      <point x="454" y="-35" type="line"/>
      <point x="397" y="-28" type="line"/>
      <point x="397" y="30" type="line"/>
      <point x="309" y="30" type="line" smooth="yes"/>
      <point x="117" y="30"/>
      <point x="32" y="112"/>
      <point x="32" y="232" type="curve" smooth="yes"/>
      <point x="32" y="518" type="line" smooth="yes"/>
      <point x="32" y="618"/>
      <point x="91" y="683"/>
      <point x="210" y="706" type="curve"/>
    </contour>
    <contour>
      <point x="553" y="79" type="line" smooth="yes"/>
      <point x="676" y="79"/>
      <point x="764" y="127"/>
      <point x="764" y="216" type="curve" smooth="yes"/>
      <point x="764" y="521" type="line" smooth="yes"/>
      <point x="764" y="612"/>
      <point x="674" y="658"/>
      <point x="564" y="658" type="curve" smooth="yes"/>
      <point x="507" y="658"/>
      <point x="454" y="628"/>
      <point x="454" y="576" type="curve" smooth="yes"/>
      <point x="454" y="79" type="line"/>
    </contour>
  </outline>
</glyph>
<glyph name="Psi" format="2">
  <advance width="857" height="962"/>
  <unicode hex="03A8"/>
  <outline>
    <contour>
      <point x="87" y="416" type="line" smooth="yes"/>
      <point x="87" y="298"/>
      <point x="185" y="264"/>
      <point x="305" y="264" type="curve" smooth="yes"/>
      <point x="397" y="264" type="line"/>
      <point x="397" y="700" type="line"/>
      <point x="454" y="700" type="line"/>
      <point x="454" y="264" type="line"/>
      <point x="552" y="264" type="line" smooth="yes"/>
      <point x="670" y="264"/>
      <point x="766" y="298"/>
      <point x="766" y="416" type="curve" smooth="yes"/>
      <point x="766" y="560" type="line" smooth="yes"/>
      <point x="766" y="647"/>
      <point x="729" y="674"/>
      <point x="707" y="687" type="curve"/>
      <point x="748" y="709" type="line"/>
      <point x="799" y="683"/>
      <point x="822" y="643"/>
      <point x="822" y="554" type="curve" smooth="yes"/>
      <point x="822" y="416" type="line" smooth="yes"/>
      <point x="822" y="285"/>
      <point x="752" y="213"/>
      <point x="562" y="213" type="curve" smooth="yes"/>
      <point x="454" y="213" type="line"/>
      <point x="454" y="0" type="line"/>
      <point x="397" y="0" type="line"/>
      <point x="397" y="213" type="line"/>
      <point x="295" y="213" type="line" smooth="yes"/>
      <point x="106" y="213"/>
      <point x="32" y="285"/>
      <point x="32" y="416" type="curve" smooth="yes"/>
      <point x="32" y="700" type="line"/>
      <point x="87" y="700" type="line"/>
    </contour>
  </outline>
</glyph>
<glyph name="iotatonos" format="1">
  <advance width="135" height="962"/>
  <unicode hex="03AF"/>
  <outline>
    <component base="dotlessi"/>
    <contour>
      <point x="135" y="639" type="curve" smooth="yes"/>
      <point x="82" y="560" type="line"/>
      <point x="47" y="560" type="line"/>
      <point x="85" y="667" type="line" smooth="yes"/>
      <point x="91" y="686"/>
      <point x="110" y="696"/>
      <point x="128" y="686" type="curve" smooth="yes"/>
      <point x="146" y="676"/>
      <point x="146" y="655"/>
    </contour>
  </outline>
</glyph>
<glyph name="beta" format="2">
  <advance width="629"/>
  <unicode hex="03B2"/>
  <outline>
    <contour>
      <point x="39" y="522" type="line" smooth="yes"/>
      <point x="39" y="638"/>
      <point x="130" y="703"/>
      <point x="285" y="703" type="curve" smooth="yes"/>
      <point x="426" y="703"/>
      <point x="508" y="647"/>
      <point x="508" y="546" type="curve" smooth="yes"/>
      <point x="508" y="482"/>
      <point x="471" y="438"/>
      <point x="401" y="405" type="curve"/>
      <point x="415" y="405" type="line" smooth="yes"/>
      <point x="525" y="405"/>
      <point x="600" y="358"/>
      <point x="600" y="254" type="curve" smooth="yes"/>
      <point x="600" y="161" type="line" smooth="yes"/>
      <point x="600" y="3"/>
      <point x="469" y="-10"/>
      <point x="276" y="-10" type="curve" smooth="yes"/>
      <point x="240" y="-10"/>
      <point x="145" y="-4"/>
      <point x="95" y="3" type="curve"/>
      <point x="95" y="-213" type="line"/>
      <point x="39" y="-189" type="line"/>
    </contour>
    <contour>
      <point x="95" y="529" type="curve" smooth="yes"/>
      <point x="95" y="385" type="line"/>
      <point x="238" y="403" type="line" smooth="yes"/>
      <point x="358" y="418"/>
      <point x="451" y="469"/>
      <point x="451" y="545" type="curve" smooth="yes"/>
      <point x="451" y="605"/>
      <point x="376" y="648"/>
      <point x="280" y="648" type="curve" smooth="yes"/>
      <point x="170" y="648"/>
      <point x="95" y="609"/>
    </contour>
    <contour>
      <point x="95" y="51" type="line"/>
      <point x="94" y="52"/>
      <point x="204" y="41"/>
      <point x="285" y="41" type="curve" smooth="yes"/>
      <point x="486" y="41"/>
      <point x="542" y="69"/>
      <point x="542" y="168" type="curve" smooth="yes"/>
      <point x="542" y="252" type="line" smooth="yes"/>
      <point x="542" y="343"/>
      <point x="432" y="357"/>
      <point x="375" y="357" type="curve" smooth="yes"/>
      <point x="324" y="357"/>
      <point x="250" y="348"/>
      <point x="201" y="342" type="curve" smooth="yes"/>
      <point x="95" y="329" type="line"/>
    </contour>
  </outline>
</glyph>
<glyph name="delta" format="2">
  <advance width="617" height="962"/>
  <unicode hex="03B4"/>
  <outline>
    <contour>
      <point x="313" y="653" type="line" smooth="yes"/>
      <point x="259" y="653"/>
      <point x="230" y="635"/>
      <point x="230" y="603" type="curve" smooth="yes"/>
      <point x="230" y="563"/>
      <point x="290" y="544"/>
      <point x="332" y="524" type="curve" smooth="yes"/>
      <point x="409" y="486"/>
      <point x="487" y="457"/>
      <point x="540" y="403" type="curve" smooth="yes"/>
      <point x="574" y="369"/>
      <point x="587" y="323"/>
      <point x="587" y="280" type="curve" smooth="yes"/>
      <point x="587" y="172" type="line" smooth="yes"/>
      <point x="587" y="42"/>
      <point x="495" y="-11"/>
      <point x="310" y="-11" type="curve" smooth="yes"/>
      <point x="120" y="-11"/>
      <point x="27" y="41"/>
      <point x="27" y="169" type="curve" smooth="yes"/>
      <point x="27" y="315" type="line" smooth="yes"/>
      <point x="27" y="435"/>
      <point x="100" y="471"/>
      <point x="249" y="504" type="curve"/>
      <point x="235" y="512" type="line" smooth="yes"/>
      <point x="189" y="542"/>
      <point x="171" y="572"/>
      <point x="171" y="605" type="curve" smooth="yes"/>
      <point x="171" y="659"/>
      <point x="216" y="700"/>
      <point x="317" y="700" type="curve" smooth="yes"/>
      <point x="521" y="700" type="line"/>
      <point x="509" y="653" type="line"/>
    </contour>
    <contour>
      <point x="530" y="295" type="line" smooth="yes"/>
      <point x="530" y="361"/>
      <point x="473" y="399"/>
      <point x="399" y="433" type="curve" smooth="yes"/>
      <point x="330" y="465" type="line"/>
      <point x="124" y="446"/>
      <point x="83" y="380"/>
      <point x="83" y="322" type="curve" smooth="yes"/>
      <point x="83" y="159" type="line" smooth="yes"/>
      <point x="83" y="65"/>
      <point x="192" y="38"/>
      <point x="312" y="38" type="curve" smooth="yes"/>
      <point x="439" y="38"/>
      <point x="530" y="72"/>
      <point x="530" y="162" type="curve" smooth="yes"/>
    </contour>
  </outline>
</glyph>
<glyph name="eta" format="1">
  <advance width="628" height="962"/>
  <unicode hex="03B7"/>
  <outline>
    <contour>
      <point x="534" y="353" type="line" smooth="yes"/>
      <point x="534" y="454"/>
      <point x="413" y="460"/>
      <point x="317" y="460" type="curve" smooth="yes"/>
      <point x="248" y="460"/>
      <point x="157" y="448"/>
      <point x="96" y="425" type="curve"/>
      <point x="96" y="0" type="line"/>
      <point x="38" y="0" type="line"/>
      <point x="38" y="501" type="line"/>
      <point x="96" y="501" type="line"/>
      <point x="96" y="467" type="line"/>
      <point x="153" y="493"/>
      <point x="259" y="510"/>
      <point x="334" y="510" type="curve" smooth="yes"/>
      <point x="507" y="510"/>
      <point x="592" y="472"/>
      <point x="592" y="356" type="curve" smooth="yes"/>
      <point x="592" y="-210" type="line"/>
      <point x="534" y="-187" type="line"/>
    </contour>
  </outline>
</glyph>
<glyph name="theta" format="2">
  <advance width="628" height="962"/>
  <unicode hex="03B8"/>
  <outline>
    <contour>
      <point x="312" y="709" type="curve" smooth="yes"/>
      <point x="503" y="709"/>
      <point x="591" y="643"/>
      <point x="591" y="509" type="curve" smooth="yes"/>
      <point x="591" y="183" type="line" smooth="yes"/>
      <point x="591" y="46"/>
      <point x="497" y="-6"/>
      <point x="312" y="-6" type="curve" smooth="yes"/>
      <point x="123" y="-6"/>
      <point x="30" y="54"/>
      <point x="30" y="183" type="curve" smooth="yes"/>
      <point x="30" y="311" type="line" smooth="yes"/>
      <point x="30" y="371"/>
      <point x="47" y="415"/>
      <point x="101" y="449" type="curve"/>
      <point x="64" y="488"/>
      <point x="57" y="522"/>
      <point x="57" y="556" type="curve" smooth="yes"/>
      <point x="57" y="644"/>
      <point x="144" y="709"/>
    </contour>
    <contour>
      <point x="533" y="510" type="line" smooth="yes"/>
      <point x="533" y="625"/>
      <point x="428" y="656"/>
      <point x="314" y="656" type="curve" smooth="yes"/>
      <point x="193" y="656"/>
      <point x="117" y="619"/>
      <point x="117" y="555" type="curve" smooth="yes"/>
      <point x="117" y="518"/>
      <point x="139" y="465"/>
      <point x="240" y="429" type="curve" smooth="yes"/>
      <point x="295" y="409"/>
      <point x="411" y="394"/>
      <point x="533" y="394" type="curve"/>
    </contour>
    <contour>
      <point x="312" y="42" type="curve" smooth="yes"/>
      <point x="441" y="42"/>
      <point x="533" y="74"/>
      <point x="533" y="170" type="curve" smooth="yes"/>
      <point x="533" y="349" type="line"/>
      <point x="353" y="344"/>
      <point x="209" y="367"/>
      <point x="144" y="413" type="curve"/>
      <point x="107" y="391"/>
      <point x="86" y="368"/>
      <point x="86" y="311" type="curve" smooth="yes"/>
      <point x="86" y="170" type="line" smooth="yes"/>
      <point x="86" y="74"/>
      <point x="195" y="42"/>
    </contour>
  </outline>
</glyph>
<glyph name="pi" format="1">
  <advance width="659" height="962"/>
  <unicode hex="03C0"/>
  <outline>
    <contour>
      <point x="602" y="79" type="line" smooth="yes"/>
      <point x="602" y="51"/>
      <point x="623" y="37"/>
      <point x="647" y="26" type="curve"/>
      <point x="617" y="-6" type="line"/>
      <point x="617" y="-7"/>
      <point x="545" y="11"/>
      <point x="545" y="78" type="curve" smooth="yes"/>
      <point x="545" y="446" type="line"/>
      <point x="95" y="446" type="line"/>
      <point x="95" y="0" type="line"/>
      <point x="38" y="0" type="line"/>
      <point x="38" y="500" type="line"/>
      <point x="602" y="500" type="line"/>
    </contour>
  </outline>
</glyph>
<glyph name="sigma1" format="2">
  <advance width="486" height="962"/>
  <unicode hex="03C2"/>
  <outline>
    <contour>
      <point x="78" y="285" type="line" smooth="yes"/>
      <point x="78" y="245"/>
      <point x="108" y="218"/>
      <point x="172" y="183" type="curve" smooth="yes"/>
      <point x="295" y="117" type="line" smooth="yes"/>
      <point x="350" y="87"/>
      <point x="416" y="51"/>
      <point x="416" y="-15" type="curve" smooth="yes"/>
      <point x="416" y="-79"/>
      <point x="356" y="-114"/>
      <point x="273" y="-143" type="curve"/>
      <point x="253" y="-106" type="line"/>
      <point x="305" y="-86"/>
      <point x="359" y="-62"/>
      <point x="359" y="-21" type="curve" smooth="yes"/>
      <point x="359" y="15"/>
      <point x="333" y="33"/>
      <point x="275" y="64" type="curve" smooth="yes"/>
      <point x="128" y="144" type="line" smooth="yes"/>
      <point x="46" y="189"/>
      <point x="22" y="229"/>
      <point x="22" y="288" type="curve" smooth="yes"/>
      <point x="22" y="344" type="line" smooth="yes"/>
      <point x="22" y="452"/>
      <point x="134" y="505"/>
      <point x="260" y="505" type="curve" smooth="yes"/>
      <point x="379" y="505"/>
      <point x="460" y="469"/>
      <point x="458" y="471" type="curve"/>
      <point x="430" y="427" type="line"/>
      <point x="402" y="439"/>
      <point x="338" y="455"/>
      <point x="280" y="456" type="curve" smooth="yes"/>
      <point x="181" y="458"/>
      <point x="78" y="426"/>
      <point x="78" y="344" type="curve" smooth="yes"/>
    </contour>
  </outline>
</glyph>
<glyph name="omega" format="2">
  <advance width="864"/>
  <unicode hex="03C9"/>
  <outline>
    <contour>
      <point x="671" y="499" type="line"/>
      <point x="776" y="473"/>
      <point x="830" y="422"/>
      <point x="830" y="316" type="curve" smooth="yes"/>
      <point x="830" y="183" type="line" smooth="yes"/>
      <point x="830" y="44"/>
      <point x="757" y="-13"/>
      <point x="600" y="-13" type="curve" smooth="yes"/>
      <point x="529" y="-13"/>
      <point x="460" y="12"/>
      <point x="432" y="57" type="curve"/>
      <point x="403" y="12"/>
      <point x="332" y="-13"/>
      <point x="265" y="-13" type="curve" smooth="yes"/>
      <point x="107" y="-13"/>
      <point x="30" y="36"/>
      <point x="30" y="175" type="curve" smooth="yes"/>
      <point x="30" y="316" type="line" smooth="yes"/>
      <point x="30" y="421"/>
      <point x="86" y="473"/>
      <point x="195" y="499" type="curve"/>
      <point x="210" y="455" type="line"/>
      <point x="127" y="438"/>
      <point x="88" y="396"/>
      <point x="88" y="315" type="curve" smooth="yes"/>
      <point x="88" y="165" type="line" smooth="yes"/>
      <point x="88" y="62"/>
      <point x="158" y="40"/>
      <point x="259" y="40" type="curve" smooth="yes"/>
      <point x="344" y="40"/>
      <point x="402" y="78"/>
      <point x="402" y="157" type="curve" smooth="yes"/>
      <point x="402" y="297" type="line"/>
      <point x="463" y="297" type="line"/>
      <point x="463" y="157" type="line" smooth="yes"/>
      <point x="463" y="78"/>
      <point x="519" y="40"/>
      <point x="603" y="40" type="curve" smooth="yes"/>
      <point x="706" y="40"/>
      <point x="773" y="70"/>
      <point x="773" y="173" type="curve" smooth="yes"/>
      <point x="773" y="315" type="line" smooth="yes"/>
      <point x="773" y="396"/>
      <point x="734" y="438"/>
      <point x="651" y="455" type="curve"/>
    </contour>
  </outline>
</glyph>
<glyph name="uni0402" format="1">
  <advance width="848" height="962"/>
  <unicode hex="0402"/>
  <outline>
    <component base="T" xOffset="-2"/>
    <contour>
      <point x="555" y="509" type="curve" smooth="yes"/>
      <point x="736" y="509"/>
      <point x="813" y="454"/>
      <point x="813" y="344" type="curve" smooth="yes"/>
      <point x="813" y="131" type="line" smooth="yes"/>
      <point x="813" y="53"/>
      <point x="763" y="8"/>
      <point x="651" y="-14" type="curve"/>
      <point x="629" y="29" type="line"/>
      <point x="697" y="44"/>
      <point x="761" y="78"/>
      <point x="761" y="131" type="curve" smooth="yes"/>
      <point x="761" y="336" type="line" smooth="yes"/>
      <point x="761" y="444"/>
      <point x="651" y="459"/>
      <point x="542" y="459" type="curve" smooth="yes"/>
      <point x="472" y="459"/>
      <point x="393" y="447"/>
      <point x="330" y="424" type="curve"/>
      <point x="330" y="466" type="line"/>
      <point x="388" y="492"/>
      <point x="478" y="509"/>
    </contour>
  </outline>
</glyph>
<glyph name="uni040A" format="2">
  <advance width="1211"/>
  <unicode hex="040A"/>
  <outline>
    <contour>
      <point x="959" y="413" type="line" smooth="yes"/>
      <point x="1092" y="413"/>
      <point x="1182" y="372"/>
      <point x="1182" y="260" type="curve" smooth="yes"/>
      <point x="1182" y="160" type="line" smooth="yes"/>
      <point x="1182" y="9"/>
      <point x="1057" y="-9"/>
      <point x="862" y="-9" type="curve" smooth="yes"/>
      <point x="784" y="-9"/>
      <point x="610" y="1"/>
      <point x="610" y="1" type="curve"/>
      <point x="610" y="358" type="line"/>
      <point x="100" y="358" type="line"/>
      <point x="100" y="1" type="line"/>
      <point x="42" y="1" type="line"/>
      <point x="42" y="701" type="line"/>
      <point x="100" y="701" type="line"/>
      <point x="100" y="413" type="line"/>
      <point x="610" y="413" type="line"/>
      <point x="610" y="701" type="line"/>
      <point x="666" y="701" type="line"/>
      <point x="666" y="413" type="line"/>
    </contour>
    <contour>
      <point x="1130" y="167" type="curve" smooth="yes"/>
      <point x="1130" y="256" type="line" smooth="yes"/>
      <point x="1130" y="347"/>
      <point x="1033" y="358"/>
      <point x="972" y="358" type="curve" smooth="yes"/>
      <point x="666" y="358" type="line"/>
      <point x="666" y="45" type="line"/>
      <point x="681" y="44"/>
      <point x="780" y="39"/>
      <point x="870" y="39" type="curve" smooth="yes"/>
      <point x="1030" y="39"/>
      <point x="1130" y="49"/>
    </contour>
  </outline>
  <guideline angle="0" x="0" y="980"/>
  <guideline angle="0" x="0" y="991"/>
  <guideline angle="0" x="0" y="1057"/>
</glyph>
<glyph name="uni040B" format="1">
  <advance width="850" height="962"/>
  <unicode hex="040B"/>
  <outline>
    <component base="T" xOffset="-1"/>
    <contour>
      <point x="551" y="510" type="curve" smooth="yes"/>
      <point x="718" y="510"/>
      <point x="812" y="462"/>
      <point x="812" y="356" type="curve" smooth="yes"/>
      <point x="812" y="0" type="line"/>
      <point x="756" y="0" type="line"/>
      <point x="756" y="353" type="line" smooth="yes"/>
      <point x="756" y="444"/>
      <point x="631" y="460"/>
      <point x="535" y="460" type="curve" smooth="yes"/>
      <point x="466" y="460"/>
      <point x="392" y="448"/>
      <point x="330" y="425" type="curve"/>
      <point x="330" y="467" type="line"/>
      <point x="387" y="493"/>
      <point x="476" y="510"/>
    </contour>
  </outline>
</glyph>
<glyph name="uni0417" format="2">
  <advance width="666"/>
  <unicode hex="0417"/>
  <outline>
    <contour>
      <point x="145" y="412" type="line"/>
      <point x="331" y="412" type="line" smooth="yes"/>
      <point x="436" y="412"/>
      <point x="542" y="455"/>
      <point x="542" y="535" type="curve" smooth="yes"/>
      <point x="542" y="630"/>
      <point x="440" y="660"/>
      <point x="293" y="660" type="curve" smooth="yes"/>
      <point x="208" y="660"/>
      <point x="116" y="639"/>
      <point x="116" y="639" type="curve"/>
      <point x="96" y="677" type="line"/>
      <point x="96" y="677"/>
      <point x="176" y="710"/>
      <point x="319" y="710" type="curve" smooth="yes"/>
      <point x="518" y="710"/>
      <point x="598" y="636"/>
      <point x="598" y="538" type="curve" smooth="yes"/>
      <point x="598" y="487"/>
      <point x="581" y="427"/>
      <point x="473" y="389" type="curve"/>
      <point x="573" y="361"/>
      <point x="639" y="314"/>
      <point x="639" y="212" type="curve" smooth="yes"/>
      <point x="639" y="91"/>
      <point x="548" y="-11"/>
      <point x="258" y="-11" type="curve" smooth="yes"/>
      <point x="136" y="-11"/>
      <point x="16" y="23"/>
      <point x="16" y="23" type="curve"/>
      <point x="34" y="69" type="line"/>
      <point x="34" y="69"/>
      <point x="147" y="39"/>
      <point x="256" y="39" type="curve" smooth="yes"/>
      <point x="470" y="39"/>
      <point x="583" y="100"/>
      <point x="583" y="212" type="curve" smooth="yes"/>
      <point x="583" y="319"/>
      <point x="448" y="355"/>
      <point x="310" y="355" type="curve" smooth="yes"/>
      <point x="172" y="355" type="line"/>
    </contour>
  </outline>
</glyph>
<glyph name="uni0428" format="2">
  <advance width="920"/>
  <unicode hex="0428"/>
  <outline>
    <contour>
      <point x="824" y="700" type="line"/>
      <point x="878" y="700" type="line"/>
      <point x="878" y="0" type="line"/>
      <point x="44" y="0" type="line"/>
      <point x="44" y="700" type="line"/>
      <point x="98" y="700" type="line"/>
      <point x="98" y="57" type="line"/>
      <point x="432" y="57" type="line"/>
      <point x="432" y="700" type="line"/>
      <point x="489" y="700" type="line"/>
      <point x="489" y="57" type="line"/>
      <point x="824" y="57" type="line"/>
    </contour>
  </outline>
</glyph>
<glyph name="uni042C" format="2">
  <advance width="646"/>
  <unicode hex="042C"/>
  <outline>
    <contour>
      <point x="412" y="412" type="line" smooth="yes"/>
      <point x="530" y="412"/>
      <point x="621" y="378"/>
      <point x="621" y="263" type="curve" smooth="yes"/>
      <point x="621" y="158" type="line" smooth="yes"/>
      <point x="621" y="-3"/>
      <point x="482" y="-11"/>
      <point x="279" y="-11" type="curve" smooth="yes"/>
      <point x="205" y="-11"/>
      <point x="39" y="-1"/>
      <point x="42" y="-1" type="curve"/>
      <point x="42" y="700" type="line"/>
      <point x="97" y="700" type="line"/>
      <point x="97" y="412" type="line"/>
    </contour>
    <contour>
      <point x="562" y="165" type="curve" smooth="yes"/>
      <point x="562" y="259" type="line" smooth="yes"/>
      <point x="562" y="352"/>
      <point x="470" y="357"/>
      <point x="418" y="357" type="curve" smooth="yes"/>
      <point x="97" y="357" type="line"/>
      <point x="97" y="45" type="line"/>
      <point x="106" y="45"/>
      <point x="195" y="37"/>
      <point x="285" y="37" type="curve" smooth="yes"/>
      <point x="457" y="37"/>
      <point x="562" y="31"/>
    </contour>
  </outline>
</glyph>
<glyph name="uni042D" format="2">
  <advance width="603" height="962"/>
  <unicode hex="042D"/>
  <outline>
    <contour>
      <point x="88" y="638" type="curve"/>
      <point x="72" y="677" type="line"/>
      <point x="135" y="699"/>
      <point x="216" y="710"/>
      <point x="296.8" y="710" type="curve" smooth="yes"/>
      <point x="440.1" y="710"/>
      <point x="578" y="677.3"/>
      <point x="578" y="510" type="curve" smooth="yes"/>
      <point x="578" y="184" type="line" smooth="yes"/>
      <point x="578" y="9.64999"/>
      <point x="420.6" y="-10"/>
      <point x="278" y="-10" type="curve" smooth="yes"/>
      <point x="202" y="-10"/>
      <point x="119" y="1"/>
      <point x="35" y="23" type="curve"/>
      <point x="48" y="71" type="line"/>
      <point x="132" y="51"/>
      <point x="214" y="40"/>
      <point x="272" y="40" type="curve" smooth="yes"/>
      <point x="380.15" y="40"/>
      <point x="521" y="46.15"/>
      <point x="521" y="186" type="curve" smooth="yes"/>
      <point x="521" y="357" type="line"/>
      <point x="244" y="357" type="line"/>
      <point x="224" y="412" type="line"/>
      <point x="521" y="412" type="line"/>
      <point x="521" y="514" type="line" smooth="yes"/>
      <point x="521" y="652"/>
      <point x="372.4" y="660"/>
      <point x="267" y="660" type="curve" smooth="yes"/>
      <point x="215" y="660"/>
      <point x="143" y="653"/>
    </contour>
  </outline>
</glyph>
<glyph name="uni0431" format="2">
  <advance width="615" height="962"/>
  <unicode hex="0431"/>
  <outline>
    <contour>
      <point x="328" y="512" type="curve" smooth="yes"/>
      <point x="494" y="512"/>
      <point x="584" y="447"/>
      <point x="584" y="324" type="curve" smooth="yes"/>
      <point x="584" y="179" type="line" smooth="yes"/>
      <point x="584" y="50"/>
      <point x="487" y="-8"/>
      <point x="307" y="-8" type="curve" smooth="yes"/>
      <point x="128" y="-8"/>
      <point x="28" y="45"/>
      <point x="28" y="179" type="curve" smooth="yes"/>
      <point x="28" y="473" type="line" smooth="yes"/>
      <point x="28" y="533"/>
      <point x="55" y="584"/>
      <point x="109" y="626" type="curve" smooth="yes"/>
      <point x="158" y="663"/>
      <point x="246" y="697"/>
      <point x="344" y="703" type="curve"/>
      <point x="350" y="673" type="line"/>
      <point x="257" y="660"/>
      <point x="182" y="625"/>
      <point x="146" y="597" type="curve" smooth="yes"/>
      <point x="112" y="571"/>
      <point x="82" y="535"/>
      <point x="82" y="473" type="curve" smooth="yes"/>
      <point x="82" y="431" type="line"/>
      <point x="122" y="481"/>
      <point x="235" y="512"/>
    </contour>
    <contour>
      <point x="320" y="459" type="curve" smooth="yes"/>
      <point x="205" y="459"/>
      <point x="82" y="412"/>
      <point x="82" y="327" type="curve" smooth="yes"/>
      <point x="82" y="179" type="line" smooth="yes"/>
      <point x="82" y="74"/>
      <point x="179" y="44"/>
      <point x="311" y="44" type="curve" smooth="yes"/>
      <point x="439" y="44"/>
      <point x="526" y="74"/>
      <point x="526" y="179" type="curve" smooth="yes"/>
      <point x="526" y="332" type="line" smooth="yes"/>
      <point x="526" y="416"/>
      <point x="436" y="459"/>
    </contour>
  </outline>
</glyph>
<glyph name="uni043B" format="2">
  <advance width="686"/>
  <unicode hex="043B"/>
  <outline>
    <contour>
      <point x="442" y="500" type="curve" smooth="yes"/>
      <point x="646" y="500" type="line"/>
      <point x="646" y="0" type="line"/>
      <point x="592" y="0" type="line"/>
      <point x="592" y="447" type="line"/>
      <point x="441" y="447" type="line" smooth="yes"/>
      <point x="362" y="447"/>
      <point x="314" y="421"/>
      <point x="294" y="378" type="curve" smooth="yes"/>
      <point x="173" y="112" type="line" smooth="yes"/>
      <point x="140" y="40"/>
      <point x="113" y="4"/>
      <point x="33" y="-11" type="curve"/>
      <point x="1" y="20" type="line"/>
      <point x="79" y="38"/>
      <point x="105" y="102"/>
      <point x="115" y="124" type="curve" smooth="yes"/>
      <point x="221" y="357" type="line" smooth="yes"/>
      <point x="240" y="400"/>
      <point x="272" y="500"/>
    </contour>
  </outline>
</glyph>
<glyph name="uni043D" format="2">
  <advance width="626" height="962"/>
  <unicode hex="043D"/>
  <outline>
    <contour>
      <point x="534" y="299" type="line"/>
      <point x="534" y="500" type="line"/>
      <point x="589" y="500" type="line"/>
      <point x="589" y="0" type="line"/>
      <point x="534" y="0" type="line"/>
      <point x="534" y="245" type="line"/>
      <point x="92" y="245" type="line"/>
      <point x="92" y="0" type="line"/>
      <point x="36" y="0" type="line"/>
      <point x="36" y="500" type="line"/>
      <point x="92" y="500" type="line"/>
      <point x="92" y="299" type="line"/>
    </contour>
  </outline>
</glyph>
<glyph name="uni0447" format="2">
  <advance width="650"/>
  <unicode hex="0447"/>
  <outline>
    <contour>
      <point x="538" y="0" type="line"/>
      <point x="538" y="183" type="line"/>
      <point x="488" y="133"/>
      <point x="381" y="108"/>
      <point x="296" y="108" type="curve" smooth="yes"/>
      <point x="130" y="108"/>
      <point x="32" y="151"/>
      <point x="32" y="275" type="curve" smooth="yes"/>
      <point x="32" y="500" type="line"/>
      <point x="86" y="500" type="line"/>
      <point x="86" y="275" type="line" smooth="yes"/>
      <point x="86" y="167"/>
      <point x="221" y="161"/>
      <point x="314" y="161" type="curve" smooth="yes"/>
      <point x="421" y="161"/>
      <point x="538" y="221"/>
      <point x="538" y="291" type="curve" smooth="yes"/>
      <point x="538" y="409" type="line" smooth="yes"/>
      <point x="538" y="455"/>
      <point x="551" y="496"/>
      <point x="611" y="512" type="curve"/>
      <point x="641" y="470" type="line"/>
      <point x="614" y="462"/>
      <point x="592" y="450"/>
      <point x="592" y="408" type="curve" smooth="yes"/>
      <point x="592" y="0" type="line"/>
    </contour>
  </outline>
</glyph>
<glyph name="uni044A" format="2">
  <advance width="742"/>
  <unicode hex="044A"/>
  <outline>
    <component base="uni044C" xOffset="102"/>
    <contour>
      <point x="0" y="500" type="line"/>
      <point x="168" y="500" type="line"/>
      <point x="168" y="449" type="line"/>
      <point x="143" y="449" type="line"/>
      <point x="0" y="451" type="line"/>
    </contour>
  </outline>
</glyph>
<glyph name="uni044D" format="2">
  <advance width="545"/>
  <unicode hex="044D"/>
  <outline>
    <contour>
      <point x="47" y="433" type="curve"/>
      <point x="31" y="478" type="line"/>
      <point x="94" y="497"/>
      <point x="165" y="510"/>
      <point x="232" y="510" type="curve" smooth="yes"/>
      <point x="418" y="510"/>
      <point x="512" y="452"/>
      <point x="512" y="319" type="curve" smooth="yes"/>
      <point x="512" y="174" type="line" smooth="yes"/>
      <point x="512" y="27"/>
      <point x="399" y="-9"/>
      <point x="226" y="-11" type="curve" smooth="yes"/>
      <point x="160" y="-12"/>
      <point x="90" y="-6"/>
      <point x="28" y="5" type="curve"/>
      <point x="40" y="55" type="line"/>
      <point x="37" y="56"/>
      <point x="125" y="41"/>
      <point x="223" y="41" type="curve" smooth="yes"/>
      <point x="367" y="41"/>
      <point x="456" y="64"/>
      <point x="456" y="186" type="curve" smooth="yes"/>
      <point x="456" y="227" type="line"/>
      <point x="122" y="227" type="line"/>
      <point x="105" y="281" type="line"/>
      <point x="456" y="281" type="line"/>
      <point x="456" y="311" type="line" smooth="yes"/>
      <point x="456" y="416"/>
      <point x="370" y="459"/>
      <point x="229" y="459" type="curve" smooth="yes"/>
      <point x="171" y="459"/>
      <point x="100" y="449"/>
    </contour>
  </outline>
</glyph>
<glyph name="uni044E" format="2">
  <advance width="881" height="962"/>
  <unicode hex="044E"/>
  <outline>
    <component base="o" xOffset="267.5"/>
    <component base="dotlessi"/>
    <contour>
      <point x="66" y="280" type="line"/>
      <point x="322" y="280" type="line"/>
      <point x="322" y="222" type="line"/>
      <point x="66" y="222" type="line"/>
    </contour>
  </outline>
</glyph>
<glyph name="uni044F" format="2">
  <advance width="644" height="962"/>
  <unicode hex="044F"/>
  <outline>
    <contour>
      <point x="298" y="510" type="curve" smooth="yes"/>
      <point x="434" y="510"/>
      <point x="600" y="499"/>
      <point x="600" y="499" type="curve"/>
      <point x="600" y="0" type="line"/>
      <point x="546" y="0" type="line"/>
      <point x="546" y="197" type="line"/>
      <point x="285" y="197" type="line" smooth="yes"/>
      <point x="278" y="197"/>
      <point x="237" y="197"/>
      <point x="229" y="198" type="curve"/>
      <point x="101" y="0" type="line"/>
      <point x="35" y="0" type="line"/>
      <point x="165" y="207" type="line"/>
      <point x="71" y="228"/>
      <point x="26" y="282"/>
      <point x="26" y="350" type="curve" smooth="yes"/>
      <point x="26" y="443"/>
      <point x="89" y="510"/>
    </contour>
    <contour>
      <point x="241" y="253" type="curve" smooth="yes"/>
      <point x="546" y="253" type="line"/>
      <point x="546" y="451" type="line"/>
      <point x="546" y="451"/>
      <point x="386" y="457"/>
      <point x="289" y="457" type="curve" smooth="yes"/>
      <point x="145" y="457"/>
      <point x="82" y="422"/>
      <point x="82" y="353" type="curve" smooth="yes"/>
      <point x="82" y="275"/>
      <point x="188" y="253"/>
    </contour>
  </outline>
</glyph>
<glyph name="uni0452" format="2">
  <advance width="652" height="962"/>
  <unicode hex="0452"/>
  <outline>
    <contour>
      <point x="0" y="618" type="line"/>
      <point x="353" y="618" type="line"/>
      <point x="353" y="565" type="line"/>
      <point x="0" y="565" type="line"/>
    </contour>
    <contour>
      <point x="379" y="510" type="curve" smooth="yes"/>
      <point x="546" y="510"/>
      <point x="634" y="452"/>
      <point x="634" y="346" type="curve" smooth="yes"/>
      <point x="634" y="-63" type="line" smooth="yes"/>
      <point x="634" y="-145"/>
      <point x="588" y="-185"/>
      <point x="474" y="-210" type="curve"/>
      <point x="457" y="-167" type="line"/>
      <point x="528" y="-150"/>
      <point x="580" y="-119"/>
      <point x="580" y="-69" type="curve" smooth="yes"/>
      <point x="580" y="343" type="line" smooth="yes"/>
      <point x="580" y="434"/>
      <point x="459" y="460"/>
      <point x="363" y="460" type="curve" smooth="yes"/>
      <point x="294" y="460"/>
      <point x="192" y="448"/>
      <point x="130" y="425" type="curve"/>
      <point x="130" y="0" type="line"/>
      <point x="76" y="0" type="line"/>
      <point x="76" y="700" type="line"/>
      <point x="130" y="700" type="line"/>
      <point x="130" y="467" type="line"/>
      <point x="187" y="493"/>
      <point x="304" y="510"/>
    </contour>
  </outline>
</glyph>
<glyph name="uni0454" format="1">
  <advance width="545" height="962"/>
  <unicode hex="0454"/>
  <outline>
    <contour>
      <point x="411" y="247" type="line"/>
      <point x="60" y="247" type="line"/>
      <point x="60" y="301" type="line"/>
      <point x="428" y="301" type="line"/>
    </contour>
    <contour>
      <point x="492" y="433" type="line"/>
      <point x="439" y="449"/>
      <point x="368" y="459"/>
      <point x="310" y="459" type="curve" smooth="yes"/>
      <point x="169" y="459"/>
      <point x="83" y="416"/>
      <point x="83" y="311" type="curve" smooth="yes"/>
      <point x="83" y="186" type="line" smooth="yes"/>
      <point x="83" y="64"/>
      <point x="172" y="41"/>
      <point x="316" y="41" type="curve" smooth="yes"/>
      <point x="414" y="41"/>
      <point x="502" y="56"/>
      <point x="499" y="55" type="curve"/>
      <point x="511" y="5" type="line"/>
      <point x="449" y="-6"/>
      <point x="379" y="-12"/>
      <point x="313" y="-11" type="curve" smooth="yes"/>
      <point x="140" y="-9"/>
      <point x="27" y="27"/>
      <point x="27" y="174" type="curve" smooth="yes"/>
      <point x="27" y="319" type="line" smooth="yes"/>
      <point x="27" y="452"/>
      <point x="121" y="510"/>
      <point x="307" y="510" type="curve" smooth="yes"/>
      <point x="374" y="510"/>
      <point x="445" y="497"/>
      <point x="508" y="478" type="curve"/>
    </contour>
  </outline>
</glyph>
<glyph name="uni0459" format="1">
  <advance width="1162" height="962"/>
  <unicode hex="0459"/>
  <outline>
    <contour>
      <point x="921" y="303" type="line" smooth="yes"/>
      <point x="1043" y="303"/>
      <point x="1130" y="258"/>
      <point x="1130" y="152" type="curve" smooth="yes"/>
      <point x="1130" y="52"/>
      <point x="1062" y="-8"/>
      <point x="863" y="-8" type="curve" smooth="yes"/>
      <point x="735" y="-8"/>
      <point x="594" y="3"/>
      <point x="594" y="3" type="curve"/>
      <point x="594" y="447" type="line"/>
      <point x="439" y="447" type="line" smooth="yes"/>
      <point x="360" y="447"/>
      <point x="316" y="421"/>
      <point x="296" y="378" type="curve" smooth="yes"/>
      <point x="175" y="112" type="line" smooth="yes"/>
      <point x="142" y="40"/>
      <point x="120" y="4"/>
      <point x="40" y="-11" type="curve"/>
      <point x="0" y="20" type="line"/>
      <point x="87" y="38"/>
      <point x="108" y="102"/>
      <point x="118" y="124" type="curve" smooth="yes"/>
      <point x="223" y="357" type="line" smooth="yes"/>
      <point x="242" y="400"/>
      <point x="276" y="500"/>
      <point x="444" y="500" type="curve" smooth="yes"/>
      <point x="648" y="500" type="line"/>
      <point x="648" y="303" type="line"/>
    </contour>
    <contour>
      <point x="848" y="45" type="curve" smooth="yes"/>
      <point x="992" y="45"/>
      <point x="1070" y="70"/>
      <point x="1070" y="149" type="curve" smooth="yes"/>
      <point x="1070" y="236"/>
      <point x="982" y="248"/>
      <point x="927" y="248" type="curve" smooth="yes"/>
      <point x="648" y="248" type="line"/>
      <point x="648" y="49" type="line"/>
      <point x="648" y="49"/>
      <point x="750" y="45"/>
    </contour>
  </outline>
</glyph>
<glyph name="uni0462" format="1">
  <advance width="672" height="962"/>
  <unicode hex="0462"/>
  <outline>
    <component base="uni042C" xOffset="26.5"/>
    <contour>
      <point x="1" y="617" type="line"/>
      <point x="347" y="617" type="line"/>
      <point x="347" y="564" type="line"/>
      <point x="1" y="564" type="line"/>
    </contour>
  </outline>
</glyph>
<glyph name="uni0463" format="2">
  <advance width="688"/>
  <unicode hex="0463"/>
  <outline>
    <contour>
      <point x="444" y="303" type="line" smooth="yes"/>
      <point x="568" y="303"/>
      <point x="652" y="259"/>
      <point x="652" y="152" type="curve" smooth="yes"/>
      <point x="652" y="59"/>
      <point x="587" y="-8"/>
      <point x="378" y="-8" type="curve" smooth="yes"/>
      <point x="250" y="-8"/>
      <point x="97" y="2"/>
      <point x="76" y="3" type="curve"/>
      <point x="76" y="701" type="line"/>
      <point x="130" y="701" type="line"/>
      <point x="130" y="303" type="line"/>
    </contour>
    <contour>
      <point x="363" y="45" type="curve" smooth="yes"/>
      <point x="497" y="45"/>
      <point x="592" y="72"/>
      <point x="592" y="149" type="curve" smooth="yes"/>
      <point x="592" y="237"/>
      <point x="498" y="248"/>
      <point x="442" y="248" type="curve" smooth="yes"/>
      <point x="130" y="248" type="line"/>
      <point x="130" y="49" type="line"/>
      <point x="130" y="49"/>
      <point x="265" y="45"/>
    </contour>
    <contour>
      <point x="0" y="501" type="line"/>
      <point x="353" y="501" type="line"/>
      <point x="353" y="444" type="line"/>
      <point x="0" y="444" type="line"/>
    </contour>
  </outline>
</glyph>
<glyph name="uni046A" format="2">
  <advance width="868" height="962"/>
  <unicode hex="046A"/>
  <outline>
    <contour>
      <point x="554" y="376" type="line" smooth="yes"/>
      <point x="753" y="376"/>
      <point x="827" y="305"/>
      <point x="827" y="184" type="curve" smooth="yes"/>
      <point x="827" y="0" type="line"/>
      <point x="773" y="0" type="line"/>
      <point x="773" y="194" type="line" smooth="yes"/>
      <point x="773" y="282"/>
      <point x="694" y="325"/>
      <point x="564" y="325" type="curve" smooth="yes"/>
      <point x="456" y="325" type="line"/>
      <point x="456" y="0" type="line"/>
      <point x="402" y="0" type="line"/>
      <point x="402" y="325" type="line"/>
      <point x="294" y="325" type="line" smooth="yes"/>
      <point x="164" y="325"/>
      <point x="90" y="282"/>
      <point x="90" y="194" type="curve" smooth="yes"/>
      <point x="90" y="0" type="line"/>
      <point x="36" y="0" type="line"/>
      <point x="36" y="184" type="line" smooth="yes"/>
      <point x="36" y="305"/>
      <point x="105" y="376"/>
      <point x="304" y="376" type="curve" smooth="yes"/>
      <point x="395" y="376" type="line"/>
      <point x="75" y="700" type="line"/>
      <point x="785" y="700" type="line"/>
      <point x="462" y="376" type="line"/>
    </contour>
    <contour>
      <point x="428" y="420" type="line"/>
      <point x="654" y="643" type="line"/>
      <point x="209" y="643" type="line"/>
    </contour>
  </outline>
  <guideline angle="0" x="0" y="748"/>
</glyph>
<glyph name="uni046B" format="1">
  <advance width="846" height="962"/>
  <unicode hex="046B"/>
  <outline>
    <contour>
      <point x="553" y="300" type="line" smooth="yes"/>
      <point x="752" y="300"/>
      <point x="818" y="235"/>
      <point x="818" y="104" type="curve" smooth="yes"/>
      <point x="818" y="0" type="line"/>
      <point x="764" y="0" type="line"/>
      <point x="764" y="114" type="line" smooth="yes"/>
      <point x="764" y="212"/>
      <point x="691" y="250"/>
      <point x="563" y="250" type="curve" smooth="yes"/>
      <point x="447" y="250" type="line"/>
      <point x="447" y="0" type="line"/>
      <point x="393" y="0" type="line"/>
      <point x="393" y="250" type="line"/>
      <point x="284" y="250" type="line" smooth="yes"/>
      <point x="154" y="250"/>
      <point x="82" y="212"/>
      <point x="82" y="114" type="curve" smooth="yes"/>
      <point x="82" y="0" type="line"/>
      <point x="28" y="0" type="line"/>
      <point x="28" y="104" type="line" smooth="yes"/>
      <point x="28" y="235"/>
      <point x="94" y="300"/>
      <point x="294" y="300" type="curve" smooth="yes"/>
      <point x="365" y="300" type="line"/>
      <point x="94" y="500" type="line"/>
      <point x="743" y="500" type="line"/>
      <point x="475" y="300" type="line"/>
    </contour>
    <contour>
      <point x="421" y="329" type="line"/>
      <point x="575" y="443" type="line"/>
      <point x="265" y="443" type="line"/>
    </contour>
  </outline>
</glyph>
<glyph name="uni0474" format="2">
  <advance width="792" height="962"/>
  <unicode hex="0474"/>
  <outline>
    <contour>
      <point x="763" y="712" type="curve"/>
      <point x="790" y="677" type="line"/>
      <point x="700" y="660"/>
      <point x="679" y="617"/>
      <point x="666" y="587" type="curve" smooth="yes"/>
      <point x="407" y="-1" type="line"/>
      <point x="336" y="-1" type="line"/>
      <point x="23" y="700" type="line"/>
      <point x="85" y="700" type="line"/>
      <point x="372" y="58" type="line"/>
      <point x="601" y="576" type="line" smooth="yes"/>
      <point x="636" y="656"/>
      <point x="670" y="698"/>
    </contour>
  </outline>
</glyph>
<glyph name="uni0475" format="2">
  <advance width="655" height="962"/>
  <unicode hex="0475"/>
  <outline>
    <contour>
      <point x="624" y="512" type="curve"/>
      <point x="655" y="478" type="line"/>
      <point x="582" y="457"/>
      <point x="561" y="417"/>
      <point x="546" y="388" type="curve" smooth="yes"/>
      <point x="344" y="0" type="line"/>
      <point x="278" y="0" type="line"/>
      <point x="20" y="500" type="line"/>
      <point x="80" y="500" type="line"/>
      <point x="313" y="57" type="line"/>
      <point x="474" y="376" type="line" smooth="yes"/>
      <point x="514" y="456"/>
      <point x="549" y="499"/>
    </contour>
  </outline>
</glyph>
<glyph name="uni0490" format="2">
  <advance width="549" height="962"/>
  <unicode hex="0490"/>
  <outline>
    <component base="Gamma"/>
    <contour>
      <point x="491" y="791" type="line"/>
      <point x="542" y="791" type="line"/>
      <point x="542" y="670" type="line"/>
      <point x="488" y="670" type="line"/>
      <point x="488" y="699" type="line"/>
    </contour>
  </outline>
</glyph>
<glyph name="uni0491" format="2">
  <advance width="456" height="962"/>
  <unicode hex="0491"/>
  <outline>
    <component base="uni0433"/>
    <contour>
      <point x="394" y="593" type="line"/>
      <point x="445" y="593" type="line"/>
      <point x="445" y="472" type="line"/>
      <point x="391" y="472" type="line"/>
      <point x="391" y="501" type="line"/>
    </contour>
  </outline>
</glyph>
<glyph name="uni0492" format="1">
  <advance width="559" height="962"/>
  <unicode hex="0492"/>
  <outline>
    <component base="Gamma" xOffset="10.5"/>
    <contour>
      <point x="-1" y="414" type="line"/>
      <point x="464" y="414" type="line"/>
      <point x="464" y="356" type="line"/>
      <point x="-1" y="356" type="line"/>
    </contour>
  </outline>
</glyph>
<glyph name="uni049A" format="2">
  <advance width="659" height="962"/>
  <unicode hex="049A"/>
  <outline>
    <component base="K"/>
    <contour>
      <point x="569" y="57" type="line"/>
      <point x="643" y="57" type="line"/>
      <point x="643" y="-105" type="line"/>
      <point x="594" y="-105" type="line"/>
      <point x="587" y="0" type="line"/>
      <point x="569" y="0" type="line"/>
    </contour>
  </outline>
</glyph>
<glyph name="uni049C" format="2">
  <advance width="762"/>
  <unicode hex="049C"/>
  <outline>
    <contour>
      <point x="740" y="0" type="line"/>
      <point x="660" y="0" type="line"/>
      <point x="311" y="358" type="line"/>
      <point x="225" y="358" type="line"/>
      <point x="225" y="285" type="line"/>
      <point x="172" y="285" type="line"/>
      <point x="172" y="358" type="line"/>
      <point x="95" y="358" type="line"/>
      <point x="95" y="0" type="line"/>
      <point x="40" y="0" type="line"/>
      <point x="40" y="700" type="line"/>
      <point x="95" y="700" type="line"/>
      <point x="95" y="413" type="line"/>
      <point x="172" y="413" type="line"/>
      <point x="172" y="484" type="line"/>
      <point x="225" y="484" type="line"/>
      <point x="225" y="413" type="line"/>
      <point x="302" y="413" type="line"/>
      <point x="586" y="700" type="line"/>
      <point x="662" y="700" type="line"/>
      <point x="355" y="393" type="line"/>
    </contour>
  </outline>
</glyph>
<glyph name="uni049D" format="2">
  <advance width="698" height="962"/>
  <unicode hex="049D"/>
  <outline>
    <contour>
      <point x="682" y="47" type="curve"/>
      <point x="682" y="-1" type="line"/>
      <point x="575" y="-1"/>
      <point x="524" y="58"/>
      <point x="467" y="111" type="curve" smooth="yes"/>
      <point x="302" y="263" type="line"/>
      <point x="211" y="263" type="line"/>
      <point x="211" y="191" type="line"/>
      <point x="157" y="191" type="line"/>
      <point x="157" y="263" type="line"/>
      <point x="93" y="263" type="line"/>
      <point x="93" y="0" type="line"/>
      <point x="38" y="0" type="line"/>
      <point x="38" y="511" type="line"/>
      <point x="93" y="498" type="line"/>
      <point x="93" y="318" type="line"/>
      <point x="157" y="318" type="line"/>
      <point x="157" y="390" type="line"/>
      <point x="211" y="390" type="line"/>
      <point x="211" y="318" type="line"/>
      <point x="283" y="318" type="line"/>
      <point x="541" y="500" type="line"/>
      <point x="634" y="500" type="line"/>
      <point x="348" y="296" type="line"/>
      <point x="542" y="118" type="line" smooth="yes"/>
      <point x="593" y="71"/>
      <point x="643" y="47"/>
    </contour>
  </outline>
</glyph>
<glyph name="uni04A0" format="2">
  <advance width="728" height="962"/>
  <unicode hex="04A0"/>
  <outline>
    <component base="K" xOffset="70.5"/>
    <contour>
      <point x="1" y="700" type="line"/>
      <point x="143" y="700" type="line"/>
      <point x="143" y="648" type="line"/>
      <point x="111" y="648" type="line"/>
      <point x="1" y="651" type="line"/>
    </contour>
  </outline>
</glyph>
<glyph name="uni04A3" format="2">
  <advance width="668"/>
  <unicode hex="04A3"/>
  <outline>
    <component base="uni043D"/>
    <contour>
      <point x="561" y="57" type="line"/>
      <point x="649" y="57" type="line"/>
      <point x="649" y="-105" type="line"/>
      <point x="600" y="-105" type="line"/>
      <point x="593" y="0" type="line"/>
      <point x="561" y="0" type="line"/>
    </contour>
  </outline>
</glyph>
<glyph name="uni04B0" format="2">
  <advance width="723" height="962"/>
  <unicode hex="04B0"/>
  <outline>
    <component base="uni04AE"/>
    <contour>
      <point x="153" y="218" type="line"/>
      <point x="572" y="218" type="line"/>
      <point x="572" y="160" type="line"/>
      <point x="153" y="160" type="line"/>
    </contour>
  </outline>
</glyph>
<glyph name="uni04B1" format="1">
  <advance width="616" height="962"/>
  <unicode hex="04B1"/>
  <outline>
    <component base="uni04AF" xOffset="-1.5"/>
    <contour>
      <point x="146" y="58" type="line"/>
      <point x="467" y="58" type="line"/>
      <point x="467" y="0" type="line"/>
      <point x="146" y="0" type="line"/>
    </contour>
  </outline>
</glyph>
<glyph name="uni04B7" format="1">
  <advance width="678" height="962"/>
  <unicode hex="04B7"/>
  <outline>
    <component base="uni0447"/>
    <contour>
      <point x="567" y="57" type="line"/>
      <point x="655" y="57" type="line"/>
      <point x="655" y="-105" type="line"/>
      <point x="604" y="-105" type="line"/>
      <point x="596" y="0" type="line"/>
      <point x="567" y="0" type="line"/>
    </contour>
  </outline>
</glyph>
<glyph name="uni04B8" format="2">
  <advance width="712" height="962"/>
  <unicode hex="04B8"/>
  <outline>
    <component base="uni0427"/>
    <contour>
      <point x="328" y="369" type="line"/>
      <point x="383" y="369" type="line"/>
      <point x="383" y="170" type="line"/>
      <point x="328" y="170" type="line"/>
    </contour>
  </outline>
  <guideline angle="90" x="134.436" y="0"/>
  <guideline angle="0" x="0" y="567"/>
</glyph>
<glyph name="uni04CC" format="2">
  <advance width="643"/>
  <unicode hex="04CC"/>
  <outline>
    <contour>
      <point x="472" y="57" type="line"/>
      <point x="562" y="57" type="line"/>
      <point x="562" y="0" type="line"/>
      <point x="530" y="0" type="line"/>
      <point x="522" y="-105" type="line"/>
      <point x="472" y="-105" type="line"/>
    </contour>
    <contour>
      <point x="535" y="0" type="line"/>
      <point x="535" y="189" type="line"/>
      <point x="483" y="129"/>
      <point x="370" y="108"/>
      <point x="295" y="108" type="curve" smooth="yes"/>
      <point x="129" y="108"/>
      <point x="31" y="161"/>
      <point x="31" y="275" type="curve" smooth="yes"/>
      <point x="31" y="500" type="line"/>
      <point x="85" y="500" type="line"/>
      <point x="85" y="279" type="line" smooth="yes"/>
      <point x="85" y="176"/>
      <point x="220" y="161"/>
      <point x="313" y="161" type="curve" smooth="yes"/>
      <point x="420" y="161"/>
      <point x="535" y="217"/>
      <point x="535" y="287" type="curve" smooth="yes"/>
      <point x="535" y="409" type="line" smooth="yes"/>
      <point x="535" y="455"/>
      <point x="548" y="496"/>
      <point x="608" y="512" type="curve"/>
      <point x="638" y="470" type="line"/>
      <point x="611" y="462"/>
      <point x="589" y="450"/>
      <point x="589" y="408" type="curve" smooth="yes"/>
      <point x="589" y="0" type="line"/>
    </contour>
  </outline>
</glyph>
<glyph name="endash" format="2">
	<advance width="629"/>
	<unicode hex="2013"/>
	<outline>
		<contour>
			<point x="33" y="394" type="line"/>
			<point x="33" y="414" type="line"/>
			<point x="596" y="414" type="line"/>
			<point x="596" y="394" type="line"/>
		</contour>
	</outline>
</glyph>
<glyph name="bullet" format="2">
  <advance width="336" height="962"/>
  <unicode hex="2022"/>
  <outline>
    <contour>
      <point x="263" y="436" type="curve" smooth="yes"/>
      <point x="291" y="408"/>
      <point x="305" y="375"/>
      <point x="305" y="336" type="curve" smooth="yes"/>
      <point x="305" y="299"/>
      <point x="290" y="265"/>
      <point x="263" y="238" type="curve" smooth="yes"/>
      <point x="236" y="211"/>
      <point x="205" y="196"/>
      <point x="166" y="196" type="curve" smooth="yes"/>
      <point x="129" y="196"/>
      <point x="97" y="210"/>
      <point x="68" y="238" type="curve" smooth="yes"/>
      <point x="42" y="264"/>
      <point x="28" y="298"/>
      <point x="28" y="336" type="curve" smooth="yes"/>
      <point x="28" y="376"/>
      <point x="41" y="409"/>
      <point x="68" y="436" type="curve" smooth="yes"/>
      <point x="97" y="465"/>
      <point x="129" y="478"/>
      <point x="166" y="478" type="curve" smooth="yes"/>
      <point x="203" y="478"/>
      <point x="236" y="464"/>
    </contour>
  </outline>
</glyph>
<glyph name="perthousand" format="2">
  <advance width="1587" height="962"/>
  <unicode hex="2030"/>
  <outline>
    <contour>
      <point x="74" y="0" type="line"/>
      <point x="882" y="700" type="line"/>
      <point x="978" y="700" type="line"/>
      <point x="177" y="0" type="line"/>
    </contour>
    <contour>
      <point x="264" y="714" type="curve" smooth="yes"/>
      <point x="381" y="714"/>
      <point x="482" y="650"/>
      <point x="482" y="568" type="curve" smooth="yes"/>
      <point x="482" y="488"/>
      <point x="381" y="422"/>
      <point x="264" y="422" type="curve" smooth="yes"/>
      <point x="143" y="422"/>
      <point x="44" y="488"/>
      <point x="44" y="568" type="curve" smooth="yes"/>
      <point x="44" y="650"/>
      <point x="143" y="714"/>
    </contour>
    <contour>
      <point x="264" y="663" type="curve" smooth="yes"/>
      <point x="185" y="663"/>
      <point x="120" y="619"/>
      <point x="120" y="568" type="curve" smooth="yes"/>
      <point x="120" y="518"/>
      <point x="185" y="474"/>
      <point x="264" y="474" type="curve" smooth="yes"/>
      <point x="341" y="474"/>
      <point x="404" y="518"/>
      <point x="404" y="568" type="curve" smooth="yes"/>
      <point x="404" y="619"/>
      <point x="341" y="663"/>
    </contour>
    <contour>
      <point x="804" y="277" type="curve" smooth="yes"/>
      <point x="926" y="277"/>
      <point x="1022" y="212"/>
      <point x="1022" y="132" type="curve" smooth="yes"/>
      <point x="1022" y="51"/>
      <point x="926" y="-14"/>
      <point x="804" y="-14" type="curve" smooth="yes"/>
      <point x="684" y="-14"/>
      <point x="585" y="51"/>
      <point x="585" y="132" type="curve" smooth="yes"/>
      <point x="585" y="212"/>
      <point x="684" y="277"/>
    </contour>
    <contour>
      <point x="804" y="227" type="curve" smooth="yes"/>
      <point x="729" y="227"/>
      <point x="662" y="186"/>
      <point x="662" y="132" type="curve" smooth="yes"/>
      <point x="662" y="79"/>
      <point x="729" y="37"/>
      <point x="804" y="37" type="curve" smooth="yes"/>
      <point x="881" y="37"/>
      <point x="947" y="79"/>
      <point x="947" y="132" type="curve" smooth="yes"/>
      <point x="947" y="186"/>
      <point x="881" y="227"/>
    </contour>
    <contour>
      <point x="1325" y="277" type="curve" smooth="yes"/>
      <point x="1445" y="277"/>
      <point x="1542" y="212"/>
      <point x="1542" y="132" type="curve" smooth="yes"/>
      <point x="1542" y="51"/>
      <point x="1445" y="-14"/>
      <point x="1325" y="-14" type="curve" smooth="yes"/>
      <point x="1203" y="-14"/>
      <point x="1106" y="51"/>
      <point x="1106" y="132" type="curve" smooth="yes"/>
      <point x="1106" y="212"/>
      <point x="1203" y="277"/>
    </contour>
    <contour>
      <point x="1325" y="227" type="curve" smooth="yes"/>
      <point x="1245" y="227"/>
      <point x="1181" y="186"/>
      <point x="1181" y="132" type="curve" smooth="yes"/>
      <point x="1181" y="79"/>
      <point x="1245" y="37"/>
      <point x="1325" y="37" type="curve" smooth="yes"/>
      <point x="1401" y="37"/>
      <point x="1464" y="79"/>
      <point x="1464" y="132" type="curve" smooth="yes"/>
      <point x="1464" y="186"/>
      <point x="1401" y="227"/>
    </contour>
  </outline>
</glyph>
<glyph name="guilsinglleft" format="2">
  <advance width="426" height="962"/>
  <unicode hex="2039"/>
  <outline>
    <contour>
      <point x="41" y="267" type="line"/>
      <point x="321" y="455" type="line"/>
      <point x="377" y="417" type="line"/>
      <point x="152" y="267" type="line"/>
      <point x="374" y="114" type="line"/>
      <point x="321" y="79" type="line"/>
    </contour>
  </outline>
</glyph>
<glyph name="guilsinglright" format="2">
  <advance width="426" height="962"/>
  <unicode hex="203A"/>
  <outline>
    <contour>
      <point x="272" y="267" type="line"/>
      <point x="59" y="409" type="line"/>
      <point x="98" y="457" type="line"/>
      <point x="383" y="267" type="line"/>
      <point x="102" y="77" type="line"/>
      <point x="66" y="123" type="line"/>
    </contour>
  </outline>
</glyph>
<glyph name="fraction" format="2">
  <advance width="624" height="962"/>
  <unicode hex="2044"/>
  <outline>
    <contour>
      <point x="27" y="-114" type="line"/>
      <point x="507" y="818" type="line"/>
      <point x="600" y="818" type="line"/>
      <point x="113" y="-114" type="line"/>
    </contour>
  </outline>
</glyph>
<glyph name="uni20AE" format="1">
  <advance width="618" height="962"/>
  <unicode hex="20AE"/>
  <outline>
    <component base="T" xOffset="1"/>
    <contour>
      <point x="510" y="416" type="line"/>
      <point x="529" y="362" type="line"/>
      <point x="90" y="230" type="line"/>
      <point x="73" y="284" type="line"/>
    </contour>
    <contour>
      <point x="508" y="525" type="line"/>
      <point x="528" y="470" type="line"/>
      <point x="89" y="338" type="line"/>
      <point x="72" y="393" type="line"/>
    </contour>
  </outline>
</glyph>
<glyph name="uni20B4" format="1">
  <advance width="760" height="962"/>
  <unicode hex="20B4"/>
  <outline>
    <contour>
      <point x="37" y="394" type="line"/>
      <point x="37" y="449" type="line"/>
      <point x="682" y="449" type="line"/>
      <point x="682" y="394" type="line"/>
    </contour>
    <contour>
      <point x="37" y="295" type="line"/>
      <point x="37" y="350" type="line"/>
      <point x="682" y="350" type="line"/>
      <point x="682" y="295" type="line"/>
    </contour>
    <contour>
      <point x="130" y="622" type="curve"/>
      <point x="115" y="672" type="line"/>
      <point x="186" y="697"/>
      <point x="266" y="709"/>
      <point x="345" y="709" type="curve" smooth="yes"/>
      <point x="508" y="709"/>
      <point x="681" y="664"/>
      <point x="681" y="538" type="curve" smooth="yes"/>
      <point x="681" y="328"/>
      <point x="88" y="355"/>
      <point x="88" y="181" type="curve" smooth="yes"/>
      <point x="88" y="76"/>
      <point x="242" y="42"/>
      <point x="383" y="42" type="curve" smooth="yes"/>
      <point x="505" y="42"/>
      <point x="624" y="74"/>
      <point x="696" y="129" type="curve"/>
      <point x="733" y="92" type="line"/>
      <point x="640" y="20"/>
      <point x="526" y="-13"/>
      <point x="377" y="-13" type="curve" smooth="yes"/>
      <point x="199" y="-13"/>
      <point x="22" y="43"/>
      <point x="22" y="183" type="curve" smooth="yes"/>
      <point x="22" y="415"/>
      <point x="619" y="390"/>
      <point x="619" y="543" type="curve" smooth="yes"/>
      <point x="619" y="630"/>
      <point x="452" y="655"/>
      <point x="344" y="655" type="curve" smooth="yes"/>
      <point x="273" y="655"/>
      <point x="192" y="644"/>
    </contour>
  </outline>
</glyph>
<glyph name="uni20B8" format="1">
  <advance width="614" height="962"/>
  <unicode hex="20B8"/>
  <outline>
    <contour>
      <point x="331" y="556" type="line"/>
      <point x="331" y="0" type="line"/>
      <point x="276" y="0" type="line"/>
      <point x="276" y="556" type="line"/>
      <point x="5" y="556" type="line"/>
      <point x="5" y="606" type="line"/>
      <point x="608" y="606" type="line"/>
      <point x="608" y="556" type="line"/>
    </contour>
    <contour>
      <point x="5" y="650" type="line"/>
      <point x="5" y="700" type="line"/>
      <point x="609" y="700" type="line"/>
      <point x="609" y="650" type="line"/>
    </contour>
  </outline>
</glyph>
<glyph name="uni2116" format="1">
  <advance width="1302" height="962"/>
  <unicode hex="2116"/>
  <outline>
    <contour>
      <point x="1053" y="513" type="curve" smooth="yes"/>
      <point x="1173" y="513"/>
      <point x="1270" y="477"/>
      <point x="1270" y="378" type="curve" smooth="yes"/>
      <point x="1270" y="228" type="line" smooth="yes"/>
      <point x="1270" y="128"/>
      <point x="1173" y="92"/>
      <point x="1053" y="92" type="curve" smooth="yes"/>
      <point x="931" y="92"/>
      <point x="832" y="128"/>
      <point x="832" y="228" type="curve" smooth="yes"/>
      <point x="832" y="378" type="line" smooth="yes"/>
      <point x="832" y="478"/>
      <point x="931" y="513"/>
    </contour>
    <contour>
      <point x="1051" y="144" type="curve" smooth="yes"/>
      <point x="1126" y="144"/>
      <point x="1217" y="157"/>
      <point x="1217" y="225" type="curve" smooth="yes"/>
      <point x="1217" y="379" type="line" smooth="yes"/>
      <point x="1217" y="448"/>
      <point x="1126" y="461"/>
      <point x="1051" y="461" type="curve" smooth="yes"/>
      <point x="976" y="461"/>
      <point x="886" y="448"/>
      <point x="886" y="379" type="curve" smooth="yes"/>
      <point x="886" y="225" type="line" smooth="yes"/>
      <point x="886" y="157"/>
      <point x="976" y="144"/>
    </contour>
    <contour>
      <point x="831" y="0" type="line"/>
      <point x="831" y="55" type="line"/>
      <point x="1270" y="55" type="line"/>
      <point x="1270" y="0" type="line"/>
    </contour>
    <contour>
      <point x="781" y="700" type="line"/>
      <point x="781" y="0" type="line"/>
      <point x="726" y="0" type="line"/>
      <point x="96" y="625" type="line"/>
      <point x="96" y="0" type="line"/>
      <point x="42" y="0" type="line"/>
      <point x="42" y="700" type="line"/>
      <point x="96" y="700" type="line"/>
      <point x="726" y="76" type="line"/>
      <point x="726" y="700" type="line"/>
    </contour>
  </outline>
</glyph>
<glyph name="Y_upper_alt" format="2">
  <advance width="723"/>
  <unicode hex="9997"/>
  <outline>
    <contour>
      <point x="388" y="342" type="line"/>
      <point x="388" y="0" type="line"/>
      <point x="330" y="0" type="line"/>
      <point x="330" y="340" type="line"/>
      <point x="5" y="700" type="line"/>
      <point x="76" y="700" type="line"/>
      <point x="359" y="390" type="line"/>
      <point x="642" y="700" type="line"/>
      <point x="715" y="700" type="line"/>
    </contour>
  </outline>
</glyph>
<glyph name="fi" format="1">
  <advance width="503" height="962"/>
  <unicode hex="FB01"/>
  <outline>
    <contour>
      <point x="462" y="615" type="line"/>
      <point x="401" y="639"/>
      <point x="331" y="656"/>
      <point x="258" y="656" type="curve" smooth="yes"/>
      <point x="176" y="656"/>
      <point x="96" y="639"/>
      <point x="96" y="574" type="curve" smooth="yes"/>
      <point x="96" y="500" type="line"/>
      <point x="295" y="500" type="line"/>
      <point x="271" y="447" type="line"/>
      <point x="96" y="447" type="line"/>
      <point x="96" y="0" type="line"/>
      <point x="39" y="0" type="line"/>
      <point x="39" y="572" type="line" smooth="yes"/>
      <point x="39" y="672"/>
      <point x="150" y="709"/>
      <point x="258" y="709" type="curve" smooth="yes"/>
      <point x="325" y="709"/>
      <point x="401" y="695"/>
      <point x="462" y="667" type="curve"/>
    </contour>
    <contour>
      <point x="462" y="0" type="line"/>
      <point x="405" y="0" type="line"/>
      <point x="405" y="500" type="line"/>
      <point x="462" y="500" type="line"/>
    </contour>
  </outline>
</glyph>
<glyph name="fl" format="2">
  <advance width="504"/>
  <unicode hex="FB02"/>
  <outline>
    <contour>
      <point x="403" y="623" type="line"/>
      <point x="352" y="643"/>
      <point x="296" y="649"/>
      <point x="264" y="649" type="curve" smooth="yes"/>
      <point x="192" y="649"/>
      <point x="98" y="640"/>
      <point x="98" y="560" type="curve" smooth="yes"/>
      <point x="98" y="500" type="line"/>
      <point x="299" y="500" type="line"/>
      <point x="274" y="447" type="line"/>
      <point x="98" y="447" type="line"/>
      <point x="98" y="0" type="line"/>
      <point x="39" y="0" type="line"/>
      <point x="39" y="572" type="line" smooth="yes"/>
      <point x="39" y="670"/>
      <point x="143" y="707"/>
      <point x="269" y="707" type="curve" smooth="yes"/>
      <point x="335" y="707"/>
      <point x="399" y="693"/>
      <point x="462" y="658" type="curve"/>
      <point x="462" y="0" type="line"/>
      <point x="403" y="0" type="line"/>
    </contour>
  </outline>
</glyph>
<glyph name="ffl" format="2">
  <advance width="844"/>
  <unicode hex="FB04"/>
  <outline>
    <contour>
      <point x="747" y="629" type="line"/>
      <point x="707" y="644"/>
      <point x="654" y="651"/>
      <point x="623" y="651" type="curve" smooth="yes"/>
      <point x="558" y="652"/>
      <point x="443" y="625"/>
      <point x="443" y="557" type="curve" smooth="yes"/>
      <point x="443" y="500" type="line"/>
      <point x="646" y="500" type="line"/>
      <point x="624" y="447" type="line"/>
      <point x="443" y="447" type="line"/>
      <point x="443" y="0" type="line"/>
      <point x="384" y="0" type="line"/>
      <point x="384" y="561" type="line" smooth="yes"/>
      <point x="384" y="582"/>
      <point x="391" y="604"/>
      <point x="405" y="623" type="curve"/>
      <point x="341" y="648"/>
      <point x="315" y="653"/>
      <point x="252" y="654" type="curve" smooth="yes"/>
      <point x="170" y="655"/>
      <point x="96" y="640"/>
      <point x="96" y="561" type="curve" smooth="yes"/>
      <point x="96" y="500" type="line"/>
      <point x="296" y="500" type="line"/>
      <point x="276" y="447" type="line"/>
      <point x="96" y="447" type="line"/>
      <point x="96" y="0" type="line"/>
      <point x="39" y="0" type="line"/>
      <point x="39" y="570" type="line" smooth="yes"/>
      <point x="39" y="690"/>
      <point x="179" y="706"/>
      <point x="254" y="706" type="curve" smooth="yes"/>
      <point x="326" y="706"/>
      <point x="394" y="692"/>
      <point x="451" y="664" type="curve"/>
      <point x="492" y="691"/>
      <point x="551" y="705"/>
      <point x="623" y="705" type="curve" smooth="yes"/>
      <point x="697" y="705"/>
      <point x="744" y="693"/>
      <point x="804" y="666" type="curve"/>
      <point x="804" y="0" type="line"/>
      <point x="747" y="0" type="line"/>
    </contour>
  </outline>
</glyph>
<glyph name="caroncomb" format="1">
  <advance width="267" height="962"/>
  <outline>
    <contour>
      <point x="264" y="717" type="line"/>
      <point x="132" y="589" type="line"/>
      <point x="3" y="715" type="line"/>
      <point x="42" y="753" type="line"/>
      <point x="132" y="665" type="line"/>
      <point x="225" y="754" type="line"/>
    </contour>
  </outline>
</glyph>
<glyph name="commaturnedbelowcomb" format="1">
  <advance width="267" height="962"/>
  <outline>
    <contour>
      <point x="99" y="-196" type="line"/>
      <point x="120" y="-169"/>
      <point x="127" y="-142"/>
      <point x="130" y="-121" type="curve"/>
      <point x="114" y="-118"/>
      <point x="102" y="-104"/>
      <point x="102" y="-87" type="curve" smooth="yes"/>
      <point x="102" y="-69"/>
      <point x="116" y="-54"/>
      <point x="135" y="-54" type="curve" smooth="yes"/>
      <point x="153" y="-54"/>
      <point x="169" y="-67"/>
      <point x="169" y="-87" type="curve" smooth="yes"/>
      <point x="169" y="-150"/>
      <point x="135" y="-191"/>
      <point x="116" y="-208" type="curve"/>
    </contour>
  </outline>
</glyph>
<glyph name="descendercomb" format="2">
  <advance width="267"/>
  <outline>
    <contour>
      <point x="85" y="11" type="line"/>
      <point x="129" y="8" type="line"/>
      <point x="129" y="3" type="line"/>
      <point x="194" y="-109" type="line" smooth="yes"/>
      <point x="235" y="-180"/>
      <point x="184" y="-258"/>
      <point x="96" y="-227" type="curve" smooth="yes"/>
      <point x="-8" y="-190" type="line"/>
      <point x="10" y="-151" type="line"/>
      <point x="107" y="-185" type="line" smooth="yes"/>
      <point x="156" y="-202"/>
      <point x="183" y="-169"/>
      <point x="156" y="-123" type="curve" smooth="yes"/>
      <point x="85" y="2" type="line"/>
    </contour>
  </outline>
</glyph>
<glyph name="gamma_gamma" format="2">
  <advance width="1287"/>
  <outline>
    <component base="gamma" xOffset="562.75"/>
    <contour>
      <point x="643" y="500" type="line"/>
      <point x="387" y="-58" type="line" smooth="yes"/>
      <point x="366" y="-102"/>
      <point x="343" y="-196"/>
      <point x="163" y="-199" type="curve"/>
      <point x="148" y="-156" type="line"/>
      <point x="229" y="-154"/>
      <point x="297" y="-123"/>
      <point x="317" y="-79" type="curve" smooth="yes"/>
      <point x="352" y="-4" type="line"/>
      <point x="253" y="14"/>
      <point x="213" y="60"/>
      <point x="183" y="129" type="curve" smooth="yes"/>
      <point x="19" y="500" type="line"/>
      <point x="78" y="500" type="line"/>
      <point x="236" y="140" type="line" smooth="yes"/>
      <point x="268" y="66"/>
      <point x="315" y="53"/>
      <point x="374" y="43" type="curve"/>
      <point x="583" y="500" type="line"/>
    </contour>
  </outline>
</glyph>
<glyph name="gamma_kappa" format="2">
  <advance width="1326" height="962"/>
  <outline>
    <component base="kappa" xOffset="664.25"/>
    <contour>
      <point x="718" y="469" type="line"/>
      <point x="622" y="476"/>
      <point x="614" y="443"/>
      <point x="592" y="393" type="curve" smooth="yes"/>
      <point x="388" y="-58" type="line"/>
      <point x="367" y="-102"/>
      <point x="344" y="-196"/>
      <point x="164" y="-199" type="curve"/>
      <point x="149" y="-156" type="line"/>
      <point x="230" y="-154"/>
      <point x="295" y="-123"/>
      <point x="315" y="-79" type="curve" smooth="yes"/>
      <point x="350" y="-4" type="line"/>
      <point x="258" y="13"/>
      <point x="212" y="61"/>
      <point x="182" y="129" type="curve" smooth="yes"/>
      <point x="19" y="500" type="line"/>
      <point x="76" y="500" type="line"/>
      <point x="234" y="140" type="line" smooth="yes"/>
      <point x="266" y="66"/>
      <point x="317" y="48"/>
      <point x="372" y="43" type="curve"/>
      <point x="539" y="405" type="line" smooth="yes"/>
      <point x="572" y="477"/>
      <point x="598" y="518"/>
      <point x="703" y="512" type="curve"/>
    </contour>
  </outline>
</glyph>
<glyph name="lambda_lambda" format="1">
  <advance width="1264" height="962"/>
  <outline>
    <component base="lambda" xOffset="539.25"/>
    <contour>
      <point x="634" y="-1" type="line"/>
      <point x="571" y="-1" type="line"/>
      <point x="367" y="456" type="line"/>
      <point x="310" y="452"/>
      <point x="269" y="423"/>
      <point x="241" y="360" type="curve" smooth="yes"/>
      <point x="82" y="-1" type="line"/>
      <point x="18" y="-1" type="line"/>
      <point x="181" y="371" type="line" smooth="yes"/>
      <point x="207" y="429"/>
      <point x="246" y="484"/>
      <point x="341" y="506" type="curve"/>
      <point x="308" y="578" type="line" smooth="yes"/>
      <point x="288" y="621"/>
      <point x="225" y="654"/>
      <point x="145" y="654" type="curve"/>
      <point x="160" y="697" type="line"/>
      <point x="340" y="695"/>
      <point x="366" y="600"/>
      <point x="385" y="557" type="curve" smooth="yes"/>
    </contour>
  </outline>
</glyph>
<glyph name="sigma_tau" format="1">
  <advance width="1191" height="962"/>
  <outline>
    <contour>
      <point x="946" y="430" type="line"/>
      <point x="1033" y="431"/>
      <point x="1118" y="436"/>
      <point x="1191" y="447" type="curve"/>
      <point x="1191" y="501" type="line"/>
      <point x="944" y="470"/>
      <point x="728" y="487"/>
      <point x="504" y="503" type="curve" smooth="yes"/>
      <point x="462" y="506"/>
      <point x="395" y="512"/>
      <point x="323" y="512" type="curve" smooth="yes"/>
      <point x="194" y="512"/>
      <point x="41" y="492"/>
      <point x="41" y="330" type="curve" smooth="yes"/>
      <point x="41" y="175" type="line" smooth="yes"/>
      <point x="41" y="57"/>
      <point x="137" y="-10"/>
      <point x="326" y="-10" type="curve" smooth="yes"/>
      <point x="508" y="-10"/>
      <point x="595" y="61"/>
      <point x="595" y="185" type="curve" smooth="yes"/>
      <point x="595" y="320" type="line" smooth="yes"/>
      <point x="595" y="394"/>
      <point x="572" y="427"/>
      <point x="545" y="447" type="curve"/>
      <point x="624" y="439"/>
      <point x="756" y="430"/>
      <point x="893" y="430" type="curve"/>
      <point x="893" y="133" type="line" smooth="yes"/>
      <point x="893" y="54"/>
      <point x="928" y="11"/>
      <point x="1037" y="-13" type="curve"/>
      <point x="1061" y="30" type="line"/>
      <point x="986" y="46"/>
      <point x="946" y="69"/>
      <point x="946" y="133" type="curve" smooth="yes"/>
    </contour>
    <contour>
      <point x="461" y="452" type="curve"/>
      <point x="488" y="437"/>
      <point x="543" y="406"/>
      <point x="543" y="334" type="curve" smooth="yes"/>
      <point x="543" y="175" type="line" smooth="yes"/>
      <point x="543" y="86"/>
      <point x="454" y="40"/>
      <point x="327" y="40" type="curve" smooth="yes"/>
      <point x="206" y="40"/>
      <point x="99" y="75"/>
      <point x="99" y="165" type="curve" smooth="yes"/>
      <point x="99" y="337" type="line" smooth="yes"/>
      <point x="99" y="449"/>
      <point x="236" y="459"/>
      <point x="323" y="459" type="curve" smooth="yes"/>
      <point x="368" y="459"/>
      <point x="419" y="454"/>
    </contour>
  </outline>
</glyph>
<glyph name="t_t" format="2">
  <advance width="539"/>
  <outline>
    <component base="t" xOffset="224.25"/>
    <contour>
      <point x="97" y="132" type="line" smooth="yes"/>
      <point x="97" y="79"/>
      <point x="147" y="45"/>
      <point x="214" y="30" type="curve"/>
      <point x="198" y="-13" type="line"/>
      <point x="88" y="9"/>
      <point x="40" y="54"/>
      <point x="40" y="132" type="curve" smooth="yes"/>
      <point x="40" y="700" type="line"/>
      <point x="97" y="700" type="line"/>
      <point x="97" y="500" type="line"/>
      <point x="304" y="500" type="line"/>
      <point x="304" y="448" type="line"/>
      <point x="97" y="448" type="line"/>
    </contour>
  </outline>
</glyph>
